<svg width="100" height="80" viewBox="0 0 100 80" fill="none" xmlns="http://www.w3.org/2000/svg">
<path d="M63.3517 22.3936C63.694 22.2455 64.2471 22.1646 64.3457 21.939C65.2941 19.7696 66.7348 17.8195 69.345 17.1291C70.8063 16.7425 72.8227 16.9258 74.1884 17.5215C75.4008 18.0504 76.7255 19.4528 76.8401 20.5574C77.1981 24.008 76.5116 27.5356 78.919 30.73C79.4375 31.418 79.0382 32.6101 78.8448 33.8431C73.5353 34.1163 68.4426 34.1163 63.0898 34.1163C63.0898 30.5577 63.0898 27.3711 63.3163 24.1626C67.257 24.3126 70.0208 25.7556 71.5891 28.6419C72.1125 30.2444 72.7805 31.809 73.6046 33.7391C76.3418 30.2898 76.3418 30.2898 73.8537 27.4628C71.3572 24.0938 67.6426 22.9251 63.3962 22.5747C63.4079 22.5117 63.3517 22.3936 63.3517 22.3936Z" fill="#D6DCE6"/>
<path d="M23.4965 41.1418C18.7825 38.6811 17.7068 35.2906 19.7686 31.647C20.0565 31.1382 20.2869 30.6057 20.9134 30.0065C24.0892 28.977 26.7411 27.8785 28.2601 25.434C28.5944 24.896 29.3207 24.5355 29.9989 24.1953C31.377 25.868 32.6225 27.4387 33.9077 29.2175C33.9191 31.0868 33.8909 32.7481 33.6809 34.415C31.3612 35.2481 29.3479 36.1534 29.9082 38.0359C28.5824 38.4987 27.5332 38.7539 26.6232 39.211C25.5195 39.7655 24.5334 40.4906 23.4965 41.1418Z" fill="#FDBA48"/>
<path d="M63.0922 24.1849C63.0922 27.3715 63.0922 30.5581 63.0922 34.1167C68.445 34.1167 73.5376 34.1167 78.8614 34.0402C84.162 34.037 83.7393 33.4299 83.7547 38.0759C83.7693 42.505 83.7787 46.934 83.6433 51.5759C82.9235 51.2373 82.351 50.6858 81.8211 49.9193C81.8648 46.0608 81.8406 42.4171 81.882 38.7739C81.8949 37.6425 81.6539 36.9681 80.0392 36.9823C74.4691 37.0313 68.8977 36.9821 63.0956 36.9102C61.4541 36.7424 61.0952 37.4044 61.0919 38.4755C61.0856 40.5448 60.9867 42.6139 60.7511 44.686C60.1093 44.6909 59.6425 44.6929 59.1723 44.4855C59.1571 40.9541 59.1454 37.6322 59.3067 34.2133C60.3242 34.0443 61.1687 33.9724 62.1925 33.8853C62.1925 32.0818 62.1925 30.3409 62.2282 28.4006C62.2437 26.9905 62.2235 25.7797 62.2359 24.4691C62.2685 24.3692 62.2619 24.1619 62.399 24.1329C62.7214 24.1309 62.9068 24.1579 63.0922 24.1849Z" fill="#3A3D71"/>
<path d="M28.3867 17.4411C28.87 15.7703 29.2038 14.0549 29.8654 12.4372C31.6299 8.12197 36.1734 6.92147 40.6425 9.42722C43.5095 11.0347 45.5352 13.0264 45.301 16.3328C41.741 16.5297 38.4244 16.5203 34.9605 16.504C34.6123 16.6609 34.4114 16.8248 34.123 17.1622C33.9785 17.9621 33.9216 18.5886 33.6754 19.2144C31.6764 18.5284 30.3187 19.5361 28.8234 19.9427C28.7926 19.3039 28.7851 18.8385 28.7732 18.2441C28.6414 17.8905 28.5141 17.6658 28.3867 17.4411Z" fill="#FD8E89"/>
<path d="M83.9338 58.9062C83.8749 62.0128 83.7763 65.1193 83.7768 68.2258C83.777 69.4503 83.4667 70.1413 81.784 70.2015C75.3255 70.4328 68.8739 70.8022 62.416 71.0491C58.2151 71.2097 58.2123 71.1547 58.2193 67.652C58.22 67.2814 58.2176 66.9109 58.3046 66.2222C59.2748 65.6621 60.157 65.4201 61.0625 65.3873C61.1339 66.3188 61.182 67.0411 61.2532 68.1119C68.1358 67.7525 74.8334 67.4027 81.6005 67.0494C81.6005 64.8827 81.6005 63.0366 81.6323 61.0486C81.6687 60.7138 81.6733 60.5211 81.8092 60.234C82.605 59.7286 83.2694 59.3174 83.9338 58.9062Z" fill="#464D8A"/>
<path d="M35.1078 16.5098C38.4244 16.5192 41.741 16.5285 45.3016 16.5142C50.8148 16.5847 56.0874 16.6209 61.3491 16.8441C62.0346 16.8732 63.0561 17.786 63.2331 18.4278C63.5438 19.5551 63.3216 20.7894 63.3367 22.1857C63.3507 22.3925 63.4069 22.5106 63.2231 22.6376C62.7918 22.757 62.5442 22.7493 62.2939 22.5534C62.6656 20.2472 61.6226 19.3427 59.1183 19.5881C56.5166 19.8431 53.894 20.2957 51.3032 20.2027C46.568 20.0326 41.8495 19.5242 36.9516 19.1522C36.3677 19.3201 35.9562 19.4926 35.3591 19.62C34.9612 18.7155 34.7489 17.856 34.6562 16.9385C34.8865 16.7569 34.9971 16.6333 35.1078 16.5098Z" fill="#3E417A"/>
<path d="M28.7761 18.3741C28.7836 18.8395 28.7911 19.3049 28.8131 20.1158C29.173 21.6722 29.5184 22.8831 29.8637 24.0939C29.3179 24.5362 28.5917 24.8967 28.2574 25.4347C26.7384 27.8792 24.0865 28.9777 21.0824 29.9289C20.9097 27.8723 21.2228 25.7825 20.8981 23.7675C20.2719 19.8804 23.7071 17.7036 28.0664 17.9713C28.4968 18.169 28.6365 18.2716 28.7761 18.3741Z" fill="#FEC246"/>
<path d="M23.543 41.2593C24.5319 40.4902 25.518 39.7652 26.6217 39.2107C27.5317 38.7535 28.5809 38.4983 29.9067 38.0355C29.3464 36.1531 31.3597 35.2478 33.7256 34.6211C33.9344 37.7936 33.9153 40.7654 33.7165 43.6778C32.4929 43.4989 31.449 43.3792 30.381 43.1255C30.3316 42.9036 30.3065 42.8158 30.2611 42.5483C30.2409 41.7693 30.2409 41.1699 30.2409 40.3159C27.9371 41.0415 26.6009 43.3029 24.0791 41.9704C23.9164 41.7726 23.7537 41.5749 23.543 41.2593Z" fill="#F7B04A"/>
<path d="M48.2574 64.279C44.4125 64.4485 40.5598 64.5394 36.7255 64.8157C34.2925 64.9911 33.0975 64.3716 33.4758 62.1601C33.5356 61.8105 33.3922 61.4355 33.2055 60.8113C33.0566 60.03 33.0449 59.5098 33.2089 58.9094C33.5554 57.679 33.7262 56.5287 33.9322 55.1809C33.9674 53.5618 33.9674 52.1403 33.9674 50.4727C34.7456 50.7257 35.1933 50.8713 35.6355 51.222C35.6359 54.8348 35.6567 58.2426 35.6391 61.6502C35.6335 62.7395 35.8778 63.6249 37.4438 63.5553C40.553 63.417 43.6595 63.2351 46.9044 63.1242C47.4469 63.5444 47.8521 63.9117 48.2574 64.279Z" fill="#302F5D"/>
<path d="M21.9567 56.2378C21.0851 55.8171 20.2077 55.4049 19.3437 54.9733C18.3545 54.4792 16.9732 54.1476 16.521 53.4075C16.1516 52.803 16.7205 51.6241 17.1927 50.84C17.8157 49.8058 18.7508 48.9086 19.8569 47.9277C20.7448 48.0224 21.3276 48.1419 21.9119 48.4194C21.4803 50.1496 21.479 51.4673 24.2638 51.304C24.7251 51.8095 24.9994 52.2652 25.1721 52.8525C24.3783 53.9227 23.6861 54.8615 22.8724 55.876C22.4862 56.0471 22.2214 56.1424 21.9567 56.2378Z" fill="#474C8B"/>
<path d="M21.9108 48.2624C21.328 48.1429 20.7452 48.0234 19.9975 47.835C19.6138 43.3548 19.892 42.938 23.8821 41.983C26.6018 43.3034 27.938 41.042 30.2418 40.3164C30.2418 41.1704 30.2418 41.7698 30.079 42.6021C28.2657 43.5781 26.6151 44.3213 24.8193 45.101C24.2673 45.5061 23.8603 45.8747 23.3104 46.3369C22.7485 47.0412 22.3297 47.6518 21.9108 48.2624Z" fill="#312E57"/>
<path d="M81.7745 50.1337C82.3471 50.6852 82.9196 51.2367 83.6603 51.7795C84.3012 53.1822 84.7739 54.5935 85.0491 56.16C83.6623 56.4697 82.4732 56.6242 81.2446 56.6162C80.3182 55.6529 79.4313 54.8521 78.5657 53.9108C79.2863 52.7056 79.6346 51.6914 78.0006 50.7966C77.2548 50.2838 76.5408 49.9319 75.9922 49.4727C78.0298 49.6215 79.9022 49.8776 81.7745 50.1337Z" fill="#FDC146"/>
<path d="M61.0404 65.1783C60.1582 65.4203 59.276 65.6623 58.2908 66.0197C54.852 66.6436 51.68 66.3765 48.8281 64.4075C49.8493 64.0474 50.8497 63.9714 51.8429 63.9003C51.8358 63.9052 51.8451 63.8933 51.8798 63.9627C52.0618 64.0208 52.209 64.0095 52.5816 63.971C54.9447 64.0689 57.0825 64.194 59.3819 64.3298C60.1126 64.0863 60.6816 63.8321 61.4274 63.54C62.1057 63.3698 62.6072 63.2377 63.1087 63.1055C63.1894 63.2204 63.27 63.3352 63.3506 63.4501C62.5805 64.0262 61.8105 64.6023 61.0404 65.1783Z" fill="#F9B64E"/>
<path d="M28.777 59.9113C28.0172 61.484 27.2575 63.0566 26.1604 64.7396C24.7531 65.2831 23.6832 65.7163 22.6133 66.1494C22.7868 65.0074 22.9604 63.8655 23.4926 62.6221C25.3262 61.3308 26.8012 60.1411 28.4103 58.959C28.6312 58.985 28.7181 59.0034 28.7989 59.17C28.7874 59.5159 28.7822 59.7136 28.777 59.9113Z" fill="#8A75E6"/>
<path d="M81.2856 56.7781C82.4746 56.6236 83.6637 56.469 85.0585 56.3145C84.8837 57.1063 84.5032 57.8982 84.0286 58.7981C83.2701 59.3172 82.6057 59.7284 81.6841 60.1358C80.1153 59.9023 78.8035 59.6725 77.668 59.4101C78.9913 58.5111 80.1384 57.6446 81.2856 56.7781Z" fill="#F5B44B"/>
<path d="M33.0337 58.9904C33.0454 59.5106 33.057 60.0309 33.0612 60.687C32.5027 62.1901 31.9516 63.5573 31.2188 65.1752C30.1445 66.2662 29.2519 67.1064 28.3594 67.9467C28.643 66.5587 28.9266 65.1707 29.481 63.5887C30.4826 61.9308 31.2133 60.4667 32.1242 58.9741C32.5476 58.9605 32.7906 58.9754 33.0337 58.9904Z" fill="#7C69E4"/>
<path d="M22.5722 66.3372C23.6834 65.7163 24.7533 65.2832 26.004 64.832C25.9679 67.4447 24.7118 69.6644 21.9453 71.6938C22.1558 69.8359 22.3434 68.1805 22.5722 66.3372Z" fill="#9779ED"/>
<path d="M28.3302 68.131C29.254 67.1057 30.1465 66.2655 31.1829 65.3496C31.3267 67.4517 31.3267 69.6294 31.3267 72.03C28.2075 71.4846 28.3071 69.8734 28.3302 68.131Z" fill="#A078F3"/>
<path d="M51.851 63.895C50.8506 63.971 49.8503 64.047 48.7614 64.2539C48.6729 64.3847 48.4673 64.3306 48.3639 64.3052C47.8553 63.9124 47.45 63.5451 46.7984 62.9925C45.5617 62.3699 44.4322 61.9833 45.7382 60.7762C46.843 60.63 47.7483 60.4894 48.8032 60.4199C49.6744 61.3639 50.3962 62.2368 51.1985 63.2171C51.4697 63.5147 51.6604 63.7049 51.851 63.895Z" fill="#F4A14A"/>
<path d="M23.5464 60.2916C21.5033 60.2661 19.4602 60.2406 17.5391 60.055C20.5512 60.4677 21.6714 58.2207 23.7689 57.1992C24.5364 57.2002 25.0946 57.1989 25.6532 57.3491C25.6486 57.8019 25.6435 58.1033 25.4696 58.4496C24.8676 58.8106 24.4345 59.1267 23.8294 59.5117C23.6102 59.8327 23.5629 60.0849 23.5369 60.3324C23.5582 60.3277 23.5464 60.2916 23.5464 60.2916Z" fill="#FE8795"/>
<path d="M23.5555 57.1955C21.6675 58.2193 20.5472 60.4663 17.4384 59.8968C17.0984 59.6675 16.8242 59.262 16.8778 59.2274C18.4259 58.2302 20.0068 57.2701 21.7687 56.2705C22.2199 56.1417 22.4847 56.0463 22.9427 56.0117C23.2757 56.4468 23.4156 56.8212 23.5555 57.1955Z" fill="#FD7586"/>
<path d="M23.998 59.4421C24.4312 59.126 24.8644 58.8099 25.6582 58.4883C26.7708 58.6391 27.5227 58.7954 28.2747 58.9517C26.7997 60.1415 25.3246 61.3313 23.6655 62.5333C23.5212 61.9188 23.561 61.292 23.572 60.4781C23.5432 60.2909 23.5549 60.3271 23.7107 60.3165C23.9104 60.018 23.9542 59.7301 23.998 59.4421Z" fill="#8070E3"/>
<path d="M31.9471 59.0031C31.2164 60.4672 30.4857 61.9312 29.5843 63.4357C29.2143 62.4083 29.0151 61.3404 28.7973 60.0922C28.784 59.7143 28.7892 59.5166 28.9944 59.1365C29.5849 58.9059 29.9756 58.8576 30.5604 58.8496C31.1521 58.9276 31.5496 58.9653 31.9471 59.0031Z" fill="#5957D1"/>
<path d="M28.7742 18.2439C28.639 18.2703 28.4994 18.1677 28.2866 17.9644C28.2344 17.7908 28.2554 17.7179 28.332 17.543C28.5151 17.6656 28.6424 17.8903 28.7742 18.2439Z" fill="#F8888E"/>
<path d="M62.3001 22.7422C62.5477 22.7499 62.7952 22.7576 63.2148 22.7012C67.645 22.9245 71.3597 24.0933 73.7775 27.5891C73.0778 28.1077 72.407 28.3555 71.7362 28.6034C70.0233 25.755 67.2595 24.312 63.3187 24.1621C62.9069 24.157 62.7215 24.13 62.2811 24.124C62.0261 24.145 61.7939 24.1848 61.5888 24.1707C59.9226 24.4297 58.4615 24.7028 57.0004 24.9758C56.9391 24.8107 56.8777 24.6455 56.8164 24.4804C58.6443 23.901 60.4722 23.3216 62.3001 22.7422Z" fill="#F68A92"/>
<path d="M71.5898 28.6428C72.4053 28.357 73.0761 28.1092 73.8255 27.7344C76.3426 30.2908 76.3426 30.2908 73.6054 33.7401C72.7813 31.81 72.1132 30.2454 71.5898 28.6428Z" fill="#FA89A2"/>
<path d="M29.9997 24.1944C29.5218 22.8815 29.1765 21.6706 28.8398 20.2877C30.3206 19.5356 31.6783 18.5278 33.7214 19.4205C33.9261 22.7547 33.8975 25.8815 33.8688 29.0084C32.6233 27.4378 31.3777 25.8671 29.9997 24.1944Z" fill="#F8888E"/>
<path d="M33.9084 29.2174C33.8975 25.8824 33.9261 22.7555 33.9107 19.422C33.9235 18.5889 33.9804 17.9624 34.2063 17.1666C34.3753 16.9972 34.5386 16.998 34.5386 16.998C34.7509 17.8575 34.9631 18.7169 35.3644 19.8306C35.5992 23.8172 35.6451 27.5494 35.6476 31.4572C35.564 32.1092 35.5237 32.5856 35.2952 33.1262C34.9254 35.147 34.6677 37.1021 34.6125 39.0614C34.5975 39.5949 35.1924 40.1409 35.5387 40.8786C35.5534 42.1395 35.5367 43.203 35.3557 44.2582C34.972 44.252 34.7525 44.2542 34.3863 44.2152C34.1259 44.0285 34.0122 43.8829 33.8984 43.7374C33.9175 40.7656 33.9366 37.7939 33.9096 34.6156C33.8917 32.748 33.9199 31.0868 33.9084 29.2174Z" fill="#2E2A52"/>
<path d="M61.0614 65.3874C61.8081 64.6021 62.5782 64.0261 63.3482 63.45C63.2676 63.3351 63.187 63.2202 63.1064 63.1053C62.6048 63.2375 62.1033 63.3697 61.3901 63.3249C61.1093 61.4466 61.0402 59.7453 61.0104 57.8412C61.0072 53.3196 60.9645 49.0009 60.9219 44.6821C60.9824 42.6129 61.0814 40.5438 61.0877 38.4745C61.0909 37.4034 61.4499 36.7414 63.114 37.0717C64.2734 38.1495 65.179 39.0049 66.0559 39.9406C66.0273 40.0209 65.9607 40.1797 65.8002 40.1883C65.3867 40.3475 65.1336 40.498 64.8961 40.6571C64.9118 40.6656 64.9067 40.6343 64.7658 40.6621C64.5232 40.822 64.4215 40.9541 64.3408 41.0806C64.3619 41.075 64.3284 41.0504 64.1752 41.1055C63.9037 41.4057 63.7855 41.6508 63.6562 41.8951C63.6451 41.8943 63.623 41.8962 63.45 41.9558C61.2572 45.7446 63.169 48.4618 68.5677 49.7066C69.2326 51.1312 69.8936 52.3789 70.5715 53.8211C69.9397 57.777 73.2833 60.7516 77.263 61.0849C78.6987 61.2051 80.1534 61.1602 81.5994 61.1906C81.5994 63.0367 81.5994 64.8828 81.5994 67.0495C74.8322 67.4028 68.1347 67.7526 61.2521 68.112C61.1808 67.0412 61.1328 66.3189 61.0614 65.3874Z" fill="#EEEEEF"/>
<path d="M62.2949 22.5528C60.4698 23.3204 58.6419 23.8998 56.814 24.4792C56.8753 24.6443 56.9366 24.8094 56.9979 24.9746C58.459 24.7015 59.9201 24.4285 61.637 24.2459C61.9748 24.4333 62.0775 24.5102 62.2009 24.5669C62.2211 25.7776 62.2413 26.9883 61.9887 28.3996C55.6334 28.451 49.5508 28.3018 43.4584 27.9812C42.5112 24.302 40.4812 21.376 37.125 19.1562C41.8505 19.5236 46.569 20.032 51.3042 20.202C53.895 20.2951 56.5176 19.8425 59.1193 19.5875C61.6236 19.3421 62.6666 20.2466 62.2949 22.5528Z" fill="#A47DF5"/>
<path d="M43.4688 28.1523C49.5513 28.3015 55.6339 28.4506 61.9535 28.5987C62.1906 30.3384 62.1906 32.0793 62.1906 33.8828C61.1668 33.97 60.3223 34.0418 59.1105 34.2777C58.5238 35.9209 58.3044 37.4003 57.9052 38.8796C57.4857 38.8785 57.246 38.8774 56.9285 38.7415C56.2575 38.3568 55.6641 38.1069 55.0428 37.719C54.8004 37.3299 54.586 37.0788 54.3715 36.8277C54.0191 37.1705 53.6667 37.5133 53.076 37.8679C50.0852 37.8798 47.3328 37.8799 44.5331 37.7437C44.1357 37.1186 43.7855 36.6297 43.4757 35.982C43.6724 34.4584 43.8287 33.0937 43.9852 31.5416C43.8133 30.287 43.641 29.2197 43.4688 28.1523Z" fill="#9E7CF3"/>
<path d="M70.5572 53.6259C69.8961 52.3783 69.235 51.1306 68.7273 49.6608C69.2968 49.3146 69.713 49.1907 70.307 49.0382C72.4591 48.4564 73.8116 47.415 74.2279 45.4164C74.1996 41.9774 72.6639 40.3549 68.8911 39.7204C67.8151 39.7382 66.9511 39.7989 66.0871 39.8596C65.1815 39.0043 64.2759 38.1489 63.3477 37.1312C68.8959 36.9805 74.4673 37.0297 80.0374 36.9807C81.6521 36.9665 81.8931 37.6409 81.8802 38.7723C81.8387 42.4155 81.863 46.0592 81.8193 49.9177C79.9043 49.8766 78.0319 49.6205 75.8794 49.4751C75.5993 49.5858 75.3935 49.674 75.1984 49.6653C72.2435 49.9367 71.1622 51.587 70.5572 53.6259Z" fill="#FFFFFD"/>
<path d="M58.0835 38.8799C58.3029 37.4005 58.5222 35.9212 58.9359 34.375C59.1419 37.63 59.1536 40.9519 59.1649 44.6926C59.1838 49.4612 59.2031 53.811 59.2184 58.3622C59.2159 60.4817 59.2173 62.3997 59.2188 64.3178C57.081 64.1927 54.9432 64.0676 52.4559 63.9301C52.0188 63.9092 51.9312 63.9006 51.8435 63.892C51.8435 63.892 51.8342 63.9039 51.8414 63.899C51.6578 63.7039 51.4672 63.5138 51.4492 63.1809C53.0042 62.9985 54.3979 62.8457 55.766 62.9467C57.6167 63.0833 58.2476 62.4431 58.1945 60.9249C58.0992 58.1973 58.127 55.4666 58.1258 52.6238C58.1293 52.4357 58.1103 52.3609 58.1239 52.0783C58.1322 47.5404 58.1078 43.2101 58.0835 38.8799Z" fill="#2D2D5C"/>
<path d="M59.2258 58.1606C59.2066 53.8108 59.1873 49.461 59.1719 44.9019C59.6425 44.6905 60.1093 44.6885 60.7511 44.6836C60.9688 48.9995 61.0115 53.3182 60.8391 57.8529C60.158 58.0994 59.6919 58.13 59.2258 58.1606Z" fill="#3A3E76"/>
<path d="M62.2344 24.4686C62.0784 24.5117 61.9758 24.4349 61.8431 24.2615C61.7924 24.1851 62.0246 24.1454 62.1425 24.1533C62.2605 24.1613 62.2671 24.3687 62.2344 24.4686Z" fill="#9E7CF3"/>
<path d="M34.6572 16.9396C34.5377 16.9977 34.3744 16.9968 34.293 16.9927C34.4124 16.8247 34.6133 16.6608 34.9614 16.5039C34.9981 16.6344 34.8875 16.7579 34.6572 16.9396Z" fill="#343465"/>
<path d="M30.1156 17.1995C30.1075 17.185 30.1238 17.2139 30.1156 17.1995V17.1995Z" fill="#F8888E"/>
<path d="M70.5732 53.8219C71.1615 51.5883 72.2428 49.938 75.0786 49.7734C72.3712 51.6474 71.487 53.358 72.2857 56.0157C73.3851 55.4918 74.3943 55.0109 75.5594 54.6024C76.4648 54.9269 77.2143 55.179 77.974 55.5993C78.2013 57.0301 75.3529 57.9934 77.4917 59.4437C78.8034 59.6735 80.1151 59.9033 81.5526 60.2311C81.6738 60.5219 81.6693 60.7147 81.6329 61.0494C80.1551 61.1609 78.7004 61.2058 77.2647 61.0856C73.285 60.7523 69.9414 57.7777 70.5732 53.8219Z" fill="#FEC03D"/>
<path d="M43.4601 27.9819C43.6422 29.2208 43.8145 30.2881 43.7656 31.536C40.9269 31.5711 38.3093 31.4257 35.6917 31.2802C35.6458 27.548 35.6 23.8158 35.5508 19.8744C35.9589 19.4927 36.3703 19.3202 36.9542 19.1523C40.4829 21.3767 42.5129 24.3027 43.4601 27.9819Z" fill="#906AF2"/>
<path d="M33.7188 43.676C34.0122 43.8809 34.126 44.0264 34.4146 44.3051C34.5896 44.4383 34.6065 44.6281 34.5941 44.824C34.2614 46.538 33.7518 48.0487 33.6686 49.5763C33.5637 51.503 33.8068 53.4436 33.8998 55.3782C33.7289 56.5285 33.558 57.6788 33.2116 58.9092C32.7929 58.9744 32.5498 58.9594 32.1265 58.973C31.5487 58.9638 31.1512 58.9261 30.5596 58.6526C30.189 55.3293 30.0126 52.2418 29.8362 48.9892C29.8351 48.4944 29.834 48.1647 29.9203 47.6668C30.141 46.085 30.2742 44.6714 30.4074 43.2578C31.4513 43.3775 32.4952 43.4971 33.7188 43.676Z" fill="#F975B2"/>
<path d="M30.3822 43.1256C30.2732 44.6732 30.14 46.0868 29.7282 47.6662C28.7055 48.125 27.9615 48.4182 27.0729 48.6119C26.2738 47.363 25.6193 46.2135 24.9648 45.0639C26.6154 44.3208 28.266 43.5777 30.0996 42.7812C30.3077 42.8158 30.3329 42.9037 30.3822 43.1256Z" fill="#FB7AA9"/>
<path d="M58.1043 52.7373C58.1279 55.4667 58.1001 58.1975 58.1955 60.9251C58.2486 62.4433 57.6177 63.0834 55.767 62.9468C54.3989 62.8458 53.0051 62.9986 51.3696 63.0736C50.3946 62.236 49.6728 61.3631 48.7248 60.288C47.7305 59.4845 46.9625 58.8832 45.7619 57.9433C45.6576 59.2604 45.5974 60.0207 45.5372 60.7809C44.4306 61.9825 45.5601 62.3691 46.6596 62.9388C43.6612 63.235 40.5546 63.4169 37.4454 63.5552C35.8794 63.6248 35.6351 62.7394 35.6407 61.6501C35.6584 58.2424 35.6375 54.8347 35.7602 51.2134C35.8888 50.9997 36.1315 51.041 36.186 51.197C37.0673 51.664 37.8826 52.2184 38.7226 52.2471C45.1805 52.4679 51.6431 52.5868 58.1043 52.7373Z" fill="#7761E3"/>
<path d="M36.1341 51.0433C36.1341 51.0433 35.8914 51.0021 35.7683 51.0106C35.1975 50.8736 34.7498 50.728 33.9716 50.4749C33.9716 52.1426 33.9716 53.5641 33.9365 55.1831C33.8083 53.446 33.5652 51.5055 33.6701 49.5787C33.7533 48.0512 34.2629 46.5405 34.7289 44.9258C35.0967 45.2894 35.3189 45.7496 35.552 46.3666C36.1676 48.9417 38.3889 48.2139 40.4302 48.0658C39.7259 50.1244 38.1314 50.7991 36.1341 51.0433Z" fill="#F37690"/>
<path d="M27.2175 48.709C27.9616 48.4158 28.7056 48.1227 29.6408 47.832C29.8331 48.1642 29.8342 48.4939 29.698 49.1277C29.4012 52.0309 29.5092 54.7135 26.2613 56.243C25.9481 56.3905 25.8493 56.8699 25.651 57.1952C25.0929 57.1965 24.5348 57.1977 23.7672 57.1967C23.4179 56.8201 23.278 56.4458 23.0664 55.9349C23.6869 54.8597 24.3791 53.9209 25.3337 52.8121C26.1366 51.331 26.6771 50.02 27.2175 48.709Z" fill="#F96B93"/>
<path d="M27.0722 48.611C26.6763 50.0214 26.1359 51.3325 25.4346 52.682C24.9995 52.2649 24.7252 51.8091 24.265 51.1115C23.8705 49.327 23.6618 47.7844 23.4531 46.2419C23.86 45.8733 24.2669 45.5047 24.819 45.0996C25.6187 46.2126 26.2732 47.3621 27.0722 48.611Z" fill="#F17D9A"/>
<path d="M23.3114 46.3359C23.6631 47.7848 23.8718 49.3274 24.0794 51.062C21.4803 51.4673 21.4816 50.1496 21.9132 48.4194C22.3306 47.6508 22.7495 47.0402 23.3114 46.3359Z" fill="#F8888E"/>
<path d="M75.4056 54.5284C74.3964 55.0093 73.3872 55.4901 72.2878 56.014C71.4891 53.3563 72.3733 51.6457 75.2758 49.7805C75.3948 49.6737 75.6007 49.5855 75.7155 49.582C76.5443 49.9305 77.2582 50.2825 77.8746 50.907C75.7288 51.6468 75.1354 52.8648 75.4056 54.5284Z" fill="#FCA43A"/>
<path d="M77.6697 59.4102C75.3548 57.9924 78.2032 57.0291 77.9912 55.4456C78.18 54.7668 78.3638 54.4088 78.5476 54.0508C79.4345 54.8515 80.3214 55.6522 81.2478 56.6155C80.1401 57.6446 78.993 58.5111 77.6697 59.4102Z" fill="#FEE51C"/>
<path d="M78.5661 53.91C78.361 54.4086 78.1772 54.7666 77.9781 55.2773C77.2134 55.1779 76.4639 54.9258 75.5585 54.6013C75.1324 52.8654 75.7258 51.6474 77.9034 51.0684C79.635 51.6906 79.2867 52.7048 78.5661 53.91Z" fill="#FEC82C"/>
<path d="M59.2192 58.3629C59.6893 58.1309 60.1553 58.1003 60.797 58.0566C61.0418 59.7448 61.111 61.446 61.215 63.3623C60.6808 63.8315 60.1118 64.0857 59.3812 64.3292C59.2181 62.4004 59.2167 60.4823 59.2192 58.3629Z" fill="#5D6193"/>
<path d="M51.8789 63.9628C51.9318 63.902 52.0195 63.9106 52.2312 63.9587C52.2081 64.0096 52.0609 64.0209 51.8789 63.9628Z" fill="#F4A14A"/>
<path d="M25.6499 57.3487C25.8476 56.872 25.9464 56.3926 26.2596 56.2451C29.5075 54.7155 29.3995 52.033 29.6962 49.2949C30.01 52.2433 30.1864 55.3309 30.3628 58.614C29.9722 58.8577 29.5815 58.9059 28.9971 58.9883C28.7165 59.004 28.6295 58.9857 28.4086 58.9597C27.5227 58.7957 26.7707 58.6393 25.8269 58.4437C25.6401 58.1029 25.6453 57.8015 25.6499 57.3487Z" fill="#FB7AA9"/>
<path d="M45.7376 60.7755C45.5984 60.0208 45.6586 59.2605 45.7629 57.9434C46.9635 58.8833 47.7315 59.4846 48.5763 60.2169C47.7477 60.4886 46.8424 60.6293 45.7376 60.7755Z" fill="#F09657"/>
<path d="M23.8293 59.5117C23.9574 59.7308 23.9136 60.0187 23.6927 60.3219C23.5629 60.085 23.6102 59.8328 23.8293 59.5117Z" fill="black"/>
<path d="M35.6485 31.4571C38.3094 31.427 40.927 31.5724 43.7655 31.7246C43.83 33.096 43.6738 34.4608 43.2837 36.0266C42.857 36.7178 42.6642 37.2079 42.283 37.695C41.7185 37.6961 41.3421 37.7002 40.8067 37.7128C40.514 37.9607 40.3803 38.2002 40.02 38.4388C38.4381 38.4361 37.0829 38.4343 35.6917 38.2286C35.5986 36.3705 35.5415 34.7162 35.4844 33.062C35.5246 32.5856 35.5649 32.1091 35.6485 31.4571Z" fill="#8A68EE"/>
<path d="M35.7264 38.4316C37.0816 38.4335 38.4368 38.4353 40.0783 38.5338C40.4392 38.7628 40.5443 38.8741 40.7492 39.0706C40.9709 39.2701 41.1233 39.3636 41.3671 39.5332C41.5968 39.7011 41.7523 39.7593 41.9166 39.9575C42.3181 41.4794 42.728 42.8275 42.8832 44.1934C40.3302 44.2103 38.0319 44.2094 35.6792 44.2203C35.6248 44.2321 35.5195 44.2656 35.5195 44.2656C35.5363 43.2021 35.553 42.1386 35.5804 40.6926C35.6362 39.6839 35.6813 39.0578 35.7264 38.4316Z" fill="#8467EA"/>
<path d="M35.6918 38.2275C35.6828 39.0575 35.6377 39.6836 35.5505 40.4949C35.1934 40.1398 34.5985 39.5937 34.6136 39.0602C34.6688 37.101 34.9265 35.1458 35.2963 33.125C35.5416 34.7151 35.5987 36.3694 35.6918 38.2275Z" fill="#343465"/>
<path d="M35.5407 46.2091C35.3186 45.7489 35.0964 45.2887 34.741 44.7292C34.6078 44.6298 34.5908 44.4401 34.5625 44.3481C34.7537 44.2539 34.9733 44.2517 35.357 44.2579C35.5212 44.2662 35.6265 44.2327 35.643 44.4175C35.6199 45.1379 35.5803 45.6735 35.5407 46.2091Z" fill="#343465"/>
<path d="M70.1293 49.0682C69.7131 49.1922 69.2969 49.3161 68.7236 49.4853C63.1716 48.4627 61.2598 45.7455 63.5175 42.1426C63.8964 43.0354 64.0372 43.8019 64.2451 44.9328C65.2271 44.4407 65.8624 44.1225 66.6598 43.8671C67.3879 44.0446 67.9538 44.1591 68.5304 44.4412C68.0185 45.2982 67.4961 45.9876 66.9223 46.7449C67.3933 47.0439 67.9989 47.4284 68.6304 47.9504C69.1473 48.4147 69.6383 48.7414 70.1293 49.0682Z" fill="#FEBC3D"/>
<path d="M66.4967 43.8045C65.8614 44.1228 65.2262 44.4411 64.2441 44.9331C64.0363 43.8022 63.8954 43.0357 63.6896 42.0833C63.6247 41.8974 63.6467 41.8954 63.8256 41.8626C64.113 41.5703 64.2215 41.311 64.33 41.0516C64.33 41.0516 64.3635 41.0762 64.4702 41.038C64.6874 40.8784 64.7979 40.7569 64.9083 40.6355C64.9083 40.6355 64.9134 40.6668 65.0594 40.6525C65.4577 40.4857 65.71 40.3333 65.9623 40.1809C65.9623 40.1809 66.0289 40.0221 66.0576 39.9418C66.9503 39.8007 67.8143 39.74 68.8928 39.8994C69.1012 40.5913 69.095 41.0633 68.8845 41.5432C66.7726 41.4693 66.3646 42.4462 66.4967 43.8045Z" fill="#FCA43A"/>
<path d="M65.801 40.1875C65.7092 40.3313 65.4569 40.4837 65.043 40.6419C65.1344 40.4972 65.3875 40.3467 65.801 40.1875Z" fill="#FEBC3D"/>
<path d="M64.1754 41.1055C64.2201 41.3097 64.1116 41.5691 63.8353 41.8621C63.7857 41.6507 63.9039 41.4056 64.1754 41.1055Z" fill="#FEBC3D"/>
<path d="M64.7676 40.6621C64.798 40.7558 64.6875 40.8773 64.4493 41.0425C64.4232 40.9542 64.525 40.822 64.7676 40.6621Z" fill="#FEBC3D"/>
<path d="M57.9029 38.8822C58.107 43.2125 58.1313 47.5427 57.9701 52.01C55.0906 49.8429 52.3967 47.5389 49.9336 45.2062C51.5965 45.0217 53.0286 44.8659 54.593 44.5832C55.0027 42.9882 55.2801 41.5202 55.6697 39.9943C56.0412 39.7466 56.3005 39.5567 56.65 39.2967C56.8492 39.1225 56.9372 39.0066 57.0039 38.8789C57.2436 38.88 57.4833 38.8811 57.9029 38.8822Z" fill="#9378EE"/>
<path d="M56.9292 38.7425C56.9402 39.0049 56.8522 39.1209 56.4063 39.2857C51.1385 39.383 46.2073 39.4198 41.2762 39.4565C41.1239 39.3631 40.9715 39.2696 40.8008 38.9137C40.8433 38.3352 40.9042 38.019 40.9651 37.7029C41.3414 37.6988 41.7177 37.6947 42.4249 37.7827C43.3642 37.8768 43.9726 37.8789 44.5809 37.881C47.3334 37.8809 50.0859 37.8809 53.294 37.9107C54.1903 37.913 54.6308 37.8855 55.0714 37.858C55.6647 38.1079 56.2581 38.3578 56.9292 38.7425Z" fill="#E8E2FB"/>
<path d="M44.5339 37.7443C43.9727 37.8784 43.3643 37.8763 42.6133 37.7852C42.6636 37.206 42.8564 36.7159 43.2427 36.1836C43.7863 36.6302 44.1365 37.1191 44.5339 37.7443Z" fill="#BFACF4"/>
<path d="M55.0423 37.7194C54.6297 37.8849 54.1892 37.9124 53.5312 37.8982C53.6663 37.5137 54.0186 37.1709 54.371 36.8281C54.5855 37.0792 54.7999 37.3303 55.0423 37.7194Z" fill="#BFACF4"/>
<path d="M69.0898 41.5344C69.096 41.0624 69.1022 40.5905 69.1058 39.9414C72.664 40.3559 74.1998 41.9783 74.0248 45.4156C73.08 45.5875 72.3995 45.5865 71.6369 45.4559C70.7463 44.8069 69.9376 44.2875 69.1324 43.6139C69.543 42.926 69.9502 42.3921 70.4567 41.728C69.8933 41.6482 69.4916 41.5913 69.0898 41.5344Z" fill="#FEC148"/>
<path d="M71.7186 45.584C72.3992 45.585 73.0798 45.586 73.9637 45.5888C73.8115 47.4145 72.4591 48.4558 70.307 49.0377C69.6382 48.7394 69.1472 48.4127 68.793 47.8914C69.8594 46.9925 70.789 46.2883 71.7186 45.584Z" fill="#FDB84A"/>
<path d="M49.706 45.2327C52.3999 47.5368 55.0938 49.8408 57.9406 52.2156C58.1126 52.3611 58.1316 52.4359 58.1282 52.624C51.6445 52.5868 45.1819 52.468 38.724 52.2472C37.884 52.2184 37.0687 51.6641 36.1874 51.1971C38.1302 50.7968 39.7246 50.122 40.4289 48.0635C38.3876 48.2116 36.1663 48.9394 35.5508 46.3643C35.5794 45.6719 35.619 45.1363 35.6965 44.4041C38.0327 44.2084 40.3309 44.2093 42.9697 44.2571C43.3956 44.4133 43.4712 44.5273 43.6686 44.7893C45.7688 45.0326 47.7374 45.1327 49.706 45.2327Z" fill="#7F65E8"/>
<path d="M40.8051 37.7109C40.9033 38.0186 40.8424 38.3347 40.7305 38.8072C40.544 38.8731 40.4389 38.7617 40.3047 38.5336C40.3787 38.1984 40.5123 37.9589 40.8051 37.7109Z" fill="#BFACF4"/>
<path d="M43.5343 44.6466C43.4684 44.528 43.3928 44.414 43.2217 44.24C42.726 42.8272 42.3161 41.4791 42.1172 39.9689C42.8715 39.8188 43.4148 39.8309 44.0462 39.9282C44.6091 41.2769 45.0838 42.5404 45.4105 43.8681C44.6864 44.1703 44.1103 44.4085 43.5343 44.6466Z" fill="#E0D8FA"/>
<path d="M43.9601 39.8425C43.4169 39.8305 42.8736 39.8184 42.1278 39.7946C41.7524 39.7585 41.5969 39.7004 41.3672 39.5324C46.2068 39.4195 51.1379 39.3828 56.3157 39.3555C56.303 39.5548 56.0437 39.7447 55.4943 40.0166C54.6163 40.0034 54.0283 39.9084 53.2152 39.7983C52.2389 39.796 51.4878 39.8087 50.5521 39.8192C49.9994 39.8188 49.6314 39.8207 49.0228 39.8071C47.1749 39.8086 45.5675 39.8256 43.9601 39.8425Z" fill="#BCA4E5"/>
<path d="M71.6364 45.4555C70.7887 46.2893 69.8591 46.9936 68.7667 47.7549C67.9984 47.4274 67.3928 47.0429 66.9219 46.7439C67.4956 45.9867 68.0181 45.2972 68.6132 44.34C68.8334 43.9708 68.9809 43.8692 69.1284 43.7676C69.9371 44.287 70.7458 44.8065 71.6364 45.4555Z" fill="#FEE01F"/>
<path d="M69.1316 43.6146C68.9806 43.8702 68.8331 43.9718 68.6023 44.1736C67.9531 44.1592 67.3872 44.0447 66.6591 43.8672C66.3649 42.446 66.7729 41.4691 68.8848 41.543C69.4908 41.592 69.8925 41.6489 70.4559 41.7287C69.9494 42.3928 69.5422 42.9266 69.1316 43.6146Z" fill="#FEC82C"/>
<path d="M53.4407 39.8145C54.0286 39.9095 54.6166 40.0045 55.3824 40.0754C55.2829 41.5194 55.0055 42.9875 54.4218 44.5541C53.2142 44.2035 52.3128 43.7542 51.377 43.1269C51.3666 42.3475 51.3906 41.7463 51.6091 41.137C52.3492 40.6908 52.895 40.2526 53.4407 39.8145Z" fill="#E5DEFA"/>
<path d="M51.4112 43.3047C52.3125 43.7539 53.2139 44.2032 54.2893 44.6808C53.0311 44.8649 51.599 45.0207 49.9361 45.2052C47.7368 45.1338 45.7682 45.0337 43.668 44.7904C44.1124 44.4089 44.6885 44.1707 45.6042 43.8646C46.6868 43.653 47.4297 43.5094 48.1899 43.4949C48.3754 43.8305 48.5434 44.0369 48.8453 44.2529C49.0686 44.2607 49.1581 44.2588 49.3624 44.2529C49.4773 44.2487 49.7068 44.2384 49.7881 44.3105C50.0548 44.3028 50.2401 44.2231 50.5815 44.1382C50.9621 43.857 51.1866 43.5808 51.4112 43.3047Z" fill="#C2B1EC"/>
<path d="M48.1711 43.3657C47.4282 43.5093 46.6854 43.653 45.7508 43.8004C45.0845 42.5408 44.6098 41.2773 44.0469 39.9285C45.5661 39.8264 47.1734 39.8094 49.0166 39.9305C49.2522 40.2332 49.252 40.3979 49.0932 40.6866C48.8339 41.6514 48.7332 42.4921 48.5172 43.3416C48.4019 43.3503 48.1711 43.3657 48.1711 43.3657Z" fill="#CEC1F5"/>
<path d="M49.2539 40.5622C49.2541 40.3975 49.2543 40.2328 49.2593 39.9455C49.6321 39.821 50.0001 39.8192 50.5586 39.9056C50.7492 39.9939 50.7549 40.167 50.7309 40.2645C50.707 40.362 50.6907 40.5598 50.682 40.5758C50.6732 40.5917 50.7011 40.6176 50.5911 40.6696C50.3629 40.8377 50.3179 40.9716 50.3341 41.314C50.3567 42.384 50.3914 43.2635 50.4261 44.1429C50.2408 44.2227 50.0554 44.3024 49.8052 44.1395C49.6107 43.2442 49.481 42.5914 49.3493 41.767C49.3162 41.2508 49.2851 40.9065 49.2539 40.5622Z" fill="#E8E2FB"/>
<path d="M50.7538 40.1674C50.7538 40.1674 50.7481 39.9942 50.7422 39.9082C51.4874 39.8095 52.2385 39.7968 53.2148 39.7991C52.8942 40.2523 52.3485 40.6905 51.5595 41.0282C51.2937 40.8527 51.2713 40.7777 51.2018 40.5931C51.0212 40.3781 50.8875 40.2727 50.7538 40.1674Z" fill="#CEC1F5"/>
<path d="M51.2487 40.7036C51.2711 40.7786 51.2936 40.8535 51.365 41.037C51.3898 41.7468 51.3657 42.348 51.3762 43.1273C51.1861 43.5816 50.9616 43.8577 50.581 44.139C50.3902 43.2647 50.3555 42.3852 50.4211 41.2475C50.6319 40.8837 50.6914 40.7602 50.6999 40.6188C50.6999 40.6188 50.672 40.5929 50.8188 40.6192C51.06 40.6649 51.1543 40.6842 51.2487 40.7036Z" fill="#9378EE"/>
<path d="M49.0935 40.6875C49.2833 40.9078 49.3144 41.2522 49.306 41.9601C49.2598 42.9684 49.2531 43.6131 49.2465 44.2579C49.157 44.2597 49.0675 44.2616 48.8403 44.1016C48.6793 43.7378 48.6561 43.5358 48.6328 43.3338C48.7335 42.493 48.8342 41.6523 49.0935 40.6875Z" fill="#9779ED"/>
<path d="M49.364 44.2528C49.2558 43.6122 49.2625 42.9674 49.3107 42.1309C49.4819 42.5918 49.6116 43.2445 49.7249 44.0678C49.7085 44.2384 49.4789 44.2487 49.364 44.2528Z" fill="#BCA4E5"/>
<path d="M48.5171 43.3418C48.6557 43.5351 48.6789 43.7371 48.7061 44.0913C48.5419 44.0371 48.3739 43.8307 48.1884 43.4951C48.171 43.366 48.4018 43.3505 48.5171 43.3418Z" fill="#BFACF4"/>
<path d="M51.2029 40.5939C51.1555 40.6842 51.0611 40.6648 50.8287 40.6032C50.6907 40.5609 50.7069 40.3631 50.7309 40.2656C50.8885 40.2735 51.0223 40.3788 51.2029 40.5939Z" fill="#AC94EF"/>
<path d="M50.5899 40.6699C50.6913 40.7593 50.6318 40.8828 50.4331 41.0561C50.3167 40.9719 50.3617 40.838 50.5899 40.6699Z" fill="#AC94EF"/>
</svg>
