<svg width="100" height="80" viewBox="0 0 100 80" fill="none" xmlns="http://www.w3.org/2000/svg">
<path d="M69.4551 23.2134C70.4064 22.5762 71.8017 22.0904 72.2311 21.2753C73.9845 17.9461 75.4068 16.8571 78.6089 16.9731C82.5018 17.1141 86.6831 19.4276 87.6882 21.9432C89.5933 26.7117 85.3283 32.2723 80.0239 32.1585C78.9567 31.6484 78.2802 31.1687 77.4641 30.5737C75.4394 28.8885 73.1311 28.271 70.2279 28.4421C68.3657 28.3694 66.9338 28.2139 68.2749 26.4639C65.7046 25.964 65.7046 25.964 65.0954 27.1679C62.9757 25.6992 64.7161 25.0093 66.0809 24.2246C67.3367 23.9044 68.3959 23.5589 69.4551 23.2134Z" fill="#292851"/>
<path d="M65.5529 67.414C56.2667 67.587 46.9806 67.7645 37.6941 67.9275C36.4263 67.9498 34.9524 68.1515 34.9064 66.1529C34.7245 63.9703 34.6282 62.1527 34.7611 60.3359C36.6282 60.553 38.2684 60.7583 39.9035 60.9871C47.9033 62.1063 55.9019 63.2317 64.0237 64.4686C64.6153 65.5262 65.0841 66.4701 65.5529 67.414Z" fill="#F8964E"/>
<path d="M69.3596 23.0813C68.3992 23.5601 67.3399 23.9056 65.8342 24.2041C61.9545 23.7006 58.5213 23.2443 55.0567 22.6387C54.9968 22.2891 54.9682 22.0886 54.9559 21.6841C54.8054 19.5622 54.6387 17.6444 54.5195 15.6053C54.5945 15.4023 54.6219 15.3205 54.6493 15.2387C55.8419 15.2231 57.0406 15.1378 58.2258 15.2055C61.1661 15.3735 64.0429 15.4059 65.4015 18.3112C66.1941 20.0062 67.9424 21.412 69.3596 23.0813Z" fill="#FEB235"/>
<path d="M39.4568 14.8178C39.697 14.7914 39.9373 14.7649 40.4826 14.7576C41.1123 14.7654 41.4369 14.7542 41.9612 14.7441C42.5597 14.7687 42.9585 14.792 43.3773 14.9952C43.6141 16.6808 43.8307 18.1863 44.0539 19.8677C44.4176 21.6904 44.7748 23.3372 44.9212 25.0573C42.3988 25.0984 40.0874 25.0662 37.7 24.9485C37.512 24.7542 37.3813 24.6625 37.2305 24.3864C37.9715 21.0626 38.7141 17.9402 39.4568 14.8178Z" fill="#FEAE35"/>
<path d="M39.209 14.7852C38.7135 17.9397 37.9708 21.0621 36.9827 24.3857C36.3684 24.5867 35.9995 24.5902 35.6308 24.5859C30.3321 24.5245 29.8609 24.051 31.1158 20.0914C31.1795 19.8905 31.0724 19.6544 31.0448 19.4347C31.0448 19.4347 31.1541 19.2464 31.4279 19.1695C32.6336 17.6836 33.5654 16.2747 34.4973 14.8658C35.9855 14.8282 37.4736 14.7906 39.209 14.7852Z" fill="#FEC045"/>
<path d="M19.445 48.1939C17.252 47.1279 15.059 46.062 12.9844 44.825C14.8559 42.8598 16.609 41.0657 18.3621 39.2715C20.0293 39.2908 21.6965 39.3102 23.6616 39.3659C23.9594 39.4022 24.1279 39.385 24.2253 39.5119C24.8662 40.1332 25.4096 40.6275 25.7585 41.132C22.3666 42.8427 21.1644 45.6635 19.445 48.1939Z" fill="#FD80A2"/>
<path d="M65.7856 67.4452C65.0876 66.4691 64.6188 65.5252 64.0189 64.278C63.6995 61.8674 63.5112 59.7599 63.4102 57.5019C64.0332 55.9114 64.5689 54.4715 65.217 53.1699C66.3388 54.7343 67.348 56.1604 68.3704 57.7844C68.5974 60.0937 68.8112 62.2052 69.0072 64.5165C68.9284 65.6471 68.8674 66.5778 68.8064 67.5086C67.8759 67.4982 66.9453 67.4877 65.7856 67.4452Z" fill="#F4863C"/>
<path d="M19.6328 48.2671C21.1662 45.6625 22.3683 42.8416 25.8404 41.2812C26.6437 42.3734 27.1723 43.3256 27.7116 44.4448C28.1399 45.6298 28.5575 46.6477 28.861 47.7926C27.6575 48.7909 26.5679 49.6622 25.4784 50.5334C23.5919 49.8027 21.7054 49.072 19.6328 48.2671Z" fill="#FD859B"/>
<path d="M25.5586 50.6818C26.5655 49.6637 27.655 48.7925 29.0026 47.8945C30.4432 48.593 31.6259 49.3182 32.9482 50.1748C33.3683 51.562 33.6489 52.818 33.9152 54.275C33.8645 55.5527 33.8278 56.6293 33.6734 57.7308C33.5555 57.7558 33.3399 57.8473 33.1543 57.7981C32.148 57.1254 31.3273 56.5019 30.4177 55.7431C29.3095 55.2097 28.2901 54.8118 27.2707 54.4138C26.7275 53.2187 26.1844 52.0237 25.5586 50.6818Z" fill="#FC8A90"/>
<path d="M21.207 31.2838C22.3596 27.7004 25.3287 25.541 29.5634 25.5352C29.9466 26.3247 30.0147 27.0146 30.0622 27.8184C30.0599 28.0075 30.0783 28.0828 30.0685 28.3237C30.2457 29.1143 30.4513 29.7392 30.6066 30.5152C30.5223 30.8731 30.4882 31.0797 30.3015 31.2254C29.0648 31.524 27.9808 31.8835 26.8967 32.243C26.9739 32.1142 27.0511 31.9853 27.1283 31.8564C25.1545 31.6655 23.1808 31.4746 21.207 31.2838Z" fill="#A57CEE"/>
<path d="M77.2711 49.2227C76.2945 50.495 75.2419 51.7349 74.3708 53.0525C73.8812 53.7931 73.6914 54.662 73.2371 55.763C72.8111 57.2036 72.5146 58.3543 72.0913 59.6427C71.6809 61.3168 71.3975 62.8531 70.9246 64.4011C70.4834 64.393 70.2316 64.3733 69.9803 64.1444C69.8998 59.3013 69.6813 54.6565 71.865 50.1492C73.8175 49.8187 75.5443 49.5207 77.2711 49.2227Z" fill="#353563"/>
<path d="M30.0833 27.7036C30.0152 27.0138 29.947 26.3239 29.7966 25.4721C28.9663 23.2706 28.8069 21.3004 30.9014 19.5078C31.0697 19.6553 31.1769 19.8913 31.1132 20.0922C29.8583 24.0518 30.3294 24.5253 35.6282 24.5867C35.9969 24.591 36.3658 24.5875 36.9817 24.5879C37.378 24.6628 37.5087 24.7545 37.6992 25.1251C37.9616 26.3078 38.1456 27.2288 38.1578 28.2521C35.3517 28.1375 32.7175 27.9206 30.0833 27.7036Z" fill="#F4AB4B"/>
<path d="M21.168 31.4703C23.1822 31.4726 25.1559 31.6635 27.1297 31.8544C27.0525 31.9833 26.9753 32.1121 26.8981 32.241C27.9822 31.8815 29.0662 31.522 30.3403 31.3945C30.5086 32.7047 30.4869 33.7828 30.2367 34.8607C27.4765 35.3407 24.8916 35.5239 22.3143 35.7499C21.9187 34.3862 21.5231 33.0225 21.168 31.4703Z" fill="#9A7BF0"/>
<path d="M27.0635 54.4609C28.2891 54.8099 29.3086 55.2078 30.2329 55.7722C28.794 57.8268 27.4501 59.7151 26.1063 61.6033C24.2995 61.2871 22.4928 60.9708 20.7773 60.4687C22.2379 58.4948 23.6072 56.7068 24.9766 54.9187C25.6034 54.7824 26.2303 54.6462 27.0635 54.4609Z" fill="#D589E1"/>
<path d="M22.2777 35.865C24.891 35.5253 27.4759 35.342 30.2769 35.0078C30.7654 35.5023 30.9847 35.8507 31.17 36.3812C31.1381 37.1756 31.1404 37.7878 31.1094 38.4156C31.0763 38.4311 31.0148 38.4681 30.805 38.4638C28.439 38.7681 26.2827 39.0768 24.1264 39.3855C24.1264 39.3855 23.9579 39.4027 23.8861 39.3661C23.4697 38.5607 23.125 37.792 22.7092 36.7725C22.5529 36.4001 22.443 36.2954 22.3084 36.2074C22.2861 36.1312 22.2639 36.055 22.2777 35.865Z" fill="#8F77EB"/>
<path d="M24.728 54.9453C23.6098 56.7093 22.2405 58.4974 20.6781 60.3184C19.7336 59.6477 18.7899 59.0249 18.27 58.2241C17.0901 56.4064 18.1377 55.034 20.6081 54.9774C21.8967 54.9478 23.1871 54.9703 24.728 54.9453Z" fill="#E18DDF"/>
<path d="M26.332 61.639C27.4495 59.7177 28.7934 57.8294 30.3211 55.9102C31.3257 56.5026 32.1464 57.1261 33.1472 57.9479C32.2094 59.6382 31.0914 61.1303 29.9735 62.6223C28.8351 62.3056 27.6968 61.9888 26.332 61.639Z" fill="#C884E5"/>
<path d="M18.2404 39.1113C16.6079 41.0647 14.8548 42.8589 12.9038 44.6838C11.4652 43.4104 10.5941 42.0542 11.7871 40.4146C13.3194 38.3087 15.8124 38.8891 18.2404 39.1113Z" fill="#FA7BA7"/>
<path d="M77.6055 30.6914C78.2819 31.1711 78.9583 31.6509 79.8061 32.1567C79.9799 32.2577 79.9822 32.3327 79.7659 32.5515C76.3038 34.7627 74.9385 37.7769 73.3351 40.6725C73.3365 40.6746 73.3395 40.68 73.1437 40.6696C72.1496 40.3666 71.3513 40.0741 70.6836 39.6816C71.0972 39.0536 71.3801 38.5255 71.838 37.9282C74.261 37.0716 75.0694 35.834 74.051 33.8955C75.3436 32.7746 76.4745 31.733 77.6055 30.6914Z" fill="#9679EE"/>
<path d="M29.9883 62.8031C31.0949 61.129 32.2128 59.637 33.3363 57.9958C33.3418 57.8467 33.5574 57.7553 33.6982 57.9036C34.0714 58.8126 34.3037 59.5734 34.536 60.3341C34.6323 62.1517 34.7287 63.9694 34.8808 65.9659C30.6354 66.1455 30.1367 65.8263 29.9883 62.8031Z" fill="#B77DE8"/>
<path d="M77.4319 49.1546C75.5437 49.5217 73.8169 49.8197 71.8789 50.1013C71.6677 50.0849 71.6891 49.9858 71.6948 49.8243C72.4277 48.1571 73.1549 46.6514 74.1051 45.1438C74.9227 45.1405 75.5174 45.1391 76.2819 45.2049C77.4641 46.1284 78.4764 46.9847 79.4888 47.841C78.857 48.2558 78.2252 48.6707 77.4319 49.1546Z" fill="#8271E5"/>
<path d="M73.332 40.6709C74.9368 37.7774 76.3021 34.7631 79.7262 32.6602C80.1221 32.9591 80.3373 33.2937 80.5264 33.9288C79.0349 36.3741 77.5694 38.5189 75.873 40.6656C74.872 40.6686 74.102 40.6698 73.332 40.6709Z" fill="#8974E9"/>
<path d="M41.7585 14.7426C41.4339 14.7538 41.1093 14.7651 40.6593 14.7306C40.4834 13.4952 39.8272 11.6807 40.5131 11.2504C41.8063 10.439 43.8762 10.1253 45.6167 10.1391C49.7532 10.172 52.8523 11.737 54.5564 15.0845C54.6189 15.3202 54.5914 15.402 54.3641 15.5414C53.8791 15.4466 53.5939 15.2941 53.2503 14.9977C51.3972 12.227 48.6365 11.0667 44.9191 11.1488C40.8555 11.2386 40.4212 11.6717 41.7585 14.7426Z" fill="#BEBEBE"/>
<path d="M71.1179 64.3916C71.4014 62.8553 71.6849 61.319 72.2416 59.7109C72.9783 59.8896 73.4419 60.14 73.9054 60.3905C74.0583 62.5131 74.2113 64.6357 74.3672 66.8003C73.4345 67.0338 72.5165 67.2637 71.3533 67.2977C71.1114 66.1984 71.1147 65.295 71.1179 64.3916Z" fill="#EF823D"/>
<path d="M73.3357 40.6713C74.1043 40.668 74.8743 40.6669 76.0737 40.6691C76.7675 40.6797 77.0319 40.687 77.2963 40.6943C77.4946 41.241 77.693 41.7877 77.8811 42.5971C77.2858 43.6191 76.7007 44.3783 76.1157 45.1376C75.521 45.1389 74.9263 45.1403 73.9571 45.073C72.9441 44.6031 72.3056 44.2019 71.75 43.6619C72.3353 42.5749 72.8376 41.6268 73.34 40.6788C73.34 40.6788 73.3371 40.6734 73.3357 40.6713Z" fill="#7863E5"/>
<path d="M70.9258 64.4023C71.1119 65.294 71.1086 66.1975 71.1258 67.2949C70.9532 68.6704 70.7603 69.8519 70.5202 71.3218C69.2767 70.8849 68.5673 70.6357 68 70.4365C68.3191 69.4791 68.5899 68.6664 68.8327 67.6813C68.8656 66.5782 68.9266 65.6474 69.1651 64.5238C69.5554 64.3389 69.7683 64.3468 69.9811 64.3548C70.2329 64.3745 70.4847 64.3943 70.9258 64.4023Z" fill="#97355C"/>
<path d="M77.4674 40.6361C77.0319 40.6886 76.7675 40.6813 76.3047 40.6688C77.5717 38.5188 79.0372 36.374 80.5426 34.0742C82.4081 36.9416 80.0275 38.7602 77.4674 40.6361Z" fill="#7F71E4"/>
<path d="M74.0923 60.3749C73.4406 60.1379 72.9771 59.8875 72.3672 59.571C72.5173 58.3543 72.8138 57.2037 73.2655 55.9336C74.4506 56.475 75.4805 57.1358 76.4751 58.0425C76.317 59.1035 76.1942 59.9187 76.0714 60.7339C75.4744 60.6097 74.8774 60.4856 74.0923 60.3749Z" fill="#353B6F"/>
<path d="M76.2852 45.2063C76.7004 44.3799 77.2854 43.6207 77.9938 42.7148C79.0957 43.6527 80.1432 44.7019 81.0324 45.8318C81.8547 46.8768 81.1634 47.497 79.6839 47.8331C78.4797 46.986 77.4673 46.1297 76.2852 45.2063Z" fill="#6E5FDE"/>
<path d="M76.3023 60.7595C76.1915 59.9197 76.3143 59.1045 76.5872 58.1602C77.9889 59.0557 80.6475 58.5541 80.9856 60.5616C81.0316 60.8351 80.9919 61.118 80.9919 61.3716C79.4158 61.1638 77.9759 60.9739 76.3023 60.7595Z" fill="#923458"/>
<path d="M34.2997 14.8555C33.5655 16.2751 32.6337 17.684 31.5352 19.1117C32.2796 17.7019 33.1908 16.2734 34.2997 14.8555Z" fill="#F4AB4B"/>
<path d="M22.293 36.3258C22.4446 36.2944 22.5545 36.3992 22.699 36.6124C22.5976 36.6176 22.4368 36.5313 22.293 36.3258Z" fill="#9A7BF0"/>
<path d="M55.087 22.7891C58.5202 23.2454 61.9534 23.7018 65.6365 24.18C64.7183 25.0117 62.9779 25.7016 65.1817 27.2591C65.8109 27.8288 66.1836 28.3049 66.5569 28.7817C65.955 29.1632 65.4588 29.4778 64.8233 29.8254C64.5026 29.9103 64.321 29.9621 63.9028 29.9736C60.7685 29.4809 57.8353 29.1351 54.9921 28.52C53.96 28.2968 53.1428 27.4305 52.3945 26.7766C54.7112 25.9406 55.1102 24.4531 55.087 22.7891Z" fill="#FCAB36"/>
<path d="M64.1384 30.0126C64.3199 29.9608 64.5015 29.9089 64.8194 30.0204C65.2328 30.84 65.5099 31.4963 65.7869 32.1525C66.6948 31.8803 67.8668 31.8026 68.4488 31.2907C69.3328 30.5131 69.8072 29.4342 70.4556 28.4832C73.1322 28.2721 75.4405 28.8896 77.4652 30.5747C76.474 31.7316 75.3431 32.7732 73.9058 33.8207C72.9235 33.8336 72.7103 31.9642 71.466 33.5488C69.1975 34.8017 67.8952 36.2693 68.7402 38.4625C68.5043 38.4601 68.4099 38.4594 68.1763 38.3547C67.5565 37.7284 66.9208 37.2572 66.6239 36.6744C65.6428 34.7484 64.0252 34.1216 61.5859 34.674C62.4272 33.0014 63.2828 31.507 64.1384 30.0126Z" fill="#A880F3"/>
<path d="M70.2274 28.444C69.8056 29.435 69.3312 30.5139 68.4472 31.2915C67.8652 31.8035 66.6932 31.8812 65.7854 32.1533C65.5083 31.4971 65.2312 30.8409 64.957 29.9883C65.4562 29.4773 65.9524 29.1628 66.5542 28.7812C66.181 28.3044 65.8083 27.8283 65.3514 27.2634C65.7041 25.9659 65.7041 25.9659 68.2744 26.4658C66.9333 28.2158 68.3652 28.3713 70.2274 28.444Z" fill="#F4F5FA"/>
<path d="M34.7656 60.3349C34.304 59.5733 34.0717 58.8126 33.8164 57.8786C33.83 56.6287 33.8667 55.5521 34.1499 54.2765C35.1242 54.1452 35.8575 54.1859 36.5785 54.2848C41.4488 54.9526 46.3165 55.6327 51.3027 56.41C51.959 56.0738 52.4976 55.6363 53.4346 54.8754C54.173 55.402 55.1109 56.071 56.2689 56.7747C58.7672 57.0904 61.0455 57.3714 63.3238 57.6525C63.5121 59.7599 63.7005 61.8673 63.8971 64.1643C55.9063 63.2307 47.9078 62.1053 39.9079 60.9861C38.2728 60.7573 36.6326 60.5519 34.7656 60.3349Z" fill="#F99C4E"/>
<path d="M53.3106 15.1421C53.5958 15.2945 53.8809 15.447 54.3184 15.663C54.6375 17.6444 54.8042 19.5623 54.8208 21.5815C54.0082 21.4643 53.3457 21.2458 52.51 20.9572C50.8329 20.4939 49.3289 20.1008 47.645 19.7058C47.0237 19.8431 46.5824 19.9823 45.9722 20.0604C45.2177 19.8969 44.632 19.7944 44.0462 19.6919C43.8296 18.1864 43.6129 16.6808 43.6133 14.9612C46.9904 14.8787 50.1505 15.0104 53.3106 15.1421Z" fill="#FC8269"/>
<path d="M44.0508 19.8682C44.63 19.7949 45.2157 19.8974 45.9162 20.2279C45.2153 21.9667 45.5014 23.3197 46.9153 24.5189C48.445 25.8162 50.0593 25.2098 51.8188 24.5865C53.6856 23.5444 53.1869 22.2865 52.6812 21.0277C53.3437 21.2462 54.0062 21.4647 54.8026 21.7859C54.9651 22.0891 54.9937 22.2895 55.0536 22.6392C55.1081 24.4524 54.7092 25.9399 52.1502 26.7684C49.1735 27.0602 46.911 26.5757 45.1289 24.9845C44.7717 23.3377 44.4145 21.6908 44.0508 19.8682Z" fill="#F97672"/>
<path d="M44.9202 25.0586C46.9131 26.5765 49.1756 27.061 51.9853 26.8503C53.1428 27.4307 53.96 28.2969 54.9921 28.5202C57.8354 29.1352 60.7686 29.4811 63.9028 29.9738C63.2838 31.5085 62.4282 33.0029 61.4557 34.7105C61.2315 35.0424 61.1243 35.1611 60.8299 35.2977C60.054 35.6656 59.4653 36.0156 58.8234 36.2043C58.5923 35.4747 58.4144 34.9064 58.204 34.2342C55.0987 34.8075 53.1121 33.9058 52.1308 31.4459C51.9995 32.1088 51.8683 32.7718 51.737 33.4347C51.4785 33.535 51.22 33.6353 50.9615 33.7356C50.2097 32.9095 49.458 32.0833 49.1092 31.7001C48.0528 32.6682 46.9716 33.6591 45.7425 34.6848C45.3951 34.7594 45.1957 34.799 44.9023 34.7123C42.6495 32.4409 40.4907 30.2959 38.3319 28.1508C38.1479 27.2298 37.9639 26.3089 37.7773 25.2116C40.0863 25.0675 42.3978 25.0997 44.9202 25.0586Z" fill="#FCA637"/>
<path d="M53.2517 14.9975C50.15 15.0098 46.9899 14.8781 43.5927 14.7806C42.9568 14.7914 42.5581 14.7681 41.9596 14.7436C40.4225 11.6715 40.8569 11.2384 44.9204 11.1486C48.6379 11.0665 51.3985 12.2267 53.2517 14.9975Z" fill="black"/>
<path d="M24.2266 39.5113C26.2854 39.0757 28.4417 38.767 30.8324 38.6484C30.972 41.3454 30.8772 43.8523 30.7889 46.1901C29.5567 45.4273 28.6285 44.8527 27.7003 44.278C27.1718 43.3259 26.6432 42.3738 26.0345 41.2715C25.4109 40.6269 24.8674 40.1325 24.2266 39.5113ZM27.382 40.3142C27.4077 40.4201 27.4334 40.5259 27.459 40.6318C27.5182 40.6096 27.6308 40.5803 27.6279 40.5663C27.6063 40.4608 27.5619 40.3583 27.382 40.3142Z" fill="#8674E4"/>
<path d="M63.4076 57.5007C61.042 57.3703 58.7637 57.0893 56.2578 56.5956C56.3852 55.7896 56.5616 54.8522 57.1262 54.6625C59.5475 53.8489 60.8833 52.3787 61.9303 50.4972C62.9532 50.1862 63.7737 49.8779 64.704 49.5938C64.9359 49.691 65.0475 49.7731 65.1062 50.0627C65.0765 51.1841 65.0892 52.1073 65.102 53.0304C64.5663 54.4703 64.0307 55.9102 63.4076 57.5007Z" fill="#FAA34E"/>
<path d="M69.9834 64.146C69.7701 64.3471 69.5573 64.3392 69.1847 64.3243C68.8112 62.2058 68.5974 60.0943 68.3633 57.581C68.4787 54.8105 68.6145 52.4421 68.9969 50.0841C70.0601 50.0585 70.8765 50.0224 71.6929 49.9863C71.6929 49.9863 71.6715 50.0854 71.6569 50.1343C69.6844 54.6581 69.9029 59.3028 69.9834 64.146Z" fill="#454278"/>
<path d="M68.7501 50.0727C68.6143 52.4411 68.4785 54.8096 68.3499 57.3822C67.3479 56.1601 66.3386 54.7341 65.2169 53.1696C65.0916 52.1082 65.0789 51.185 65.3197 50.125C66.1804 49.6783 67.0993 49.4728 67.3259 49.0353C67.7272 48.2608 67.7076 47.3451 67.9788 46.4941C68.245 46.517 68.3972 46.5266 68.6018 46.72C68.6857 47.9652 68.7179 49.0189 68.7501 50.0727Z" fill="#2D3664"/>
<path d="M27.707 44.4448C28.6245 44.8523 29.5527 45.4269 30.7848 46.1898C30.8732 43.8519 30.9679 41.3451 31.0381 38.6524C31.0135 38.4666 31.0749 38.4296 31.2789 38.5194C31.7764 40.0639 32.07 41.5186 32.3304 43.0933C32.4324 43.4163 32.5677 43.6193 32.66 43.8347C32.617 43.8472 32.6414 43.918 32.5802 44.1077C32.6367 45.918 32.7543 47.5386 32.8388 49.305C32.806 49.6478 32.8062 49.8448 32.8064 50.0419C31.6238 49.3167 30.4411 48.5914 29.1144 47.7659C28.5529 46.6477 28.1354 45.6298 27.707 44.4448Z" fill="#8167CC"/>
<path d="M32.9487 50.1737C32.8089 49.8454 32.8087 49.6483 33.0704 49.3066C36.8954 49.5963 40.4585 50.0306 44.1141 50.6196C44.4627 52.0886 44.7187 53.4027 44.9788 54.7375C48.1965 53.8786 50.7097 54.5477 51.1834 56.3084C46.3148 55.6323 41.4471 54.9522 36.5769 54.2844C35.8559 54.1855 35.1226 54.1448 34.1624 54.075C33.6494 52.817 33.3688 51.561 32.9487 50.1737Z" fill="#FAA24E"/>
<path d="M38.1579 28.251C40.4885 30.2937 42.6473 32.4388 44.8222 34.8469C44.1761 36.0697 43.5139 37.0295 42.6308 37.9591C38.6745 37.3518 34.9391 36.7748 31.2038 36.1977C30.9844 35.8493 30.7651 35.501 30.505 35.0068C30.486 33.7829 30.5077 32.7047 30.4921 31.4554C30.4887 31.0777 30.5228 30.8711 30.7143 30.3917C30.6136 29.4646 30.3554 28.8103 30.0973 28.156C30.0788 28.0807 30.0604 28.0055 30.0627 27.8164C32.7176 27.9194 35.3518 28.1364 38.1579 28.251Z" fill="#FCB249"/>
<path d="M30.0703 28.3223C30.3568 28.8109 30.6149 29.4652 30.7659 30.2411C30.4531 29.7377 30.2476 29.1129 30.0703 28.3223Z" fill="#F4AB4B"/>
<path d="M31.172 36.3809C34.9415 36.7758 38.6768 37.3528 42.6416 38.153C42.6695 40.8166 43.3642 43.0161 45.4599 44.957C44.5327 45.1926 43.6598 45.452 42.8549 45.353C39.4405 44.9331 36.0464 44.4067 32.6448 43.9192C32.6448 43.9192 32.6204 43.8484 32.6639 43.7196C32.5939 43.3854 32.4804 43.1799 32.367 42.9744C32.0734 41.5198 31.7798 40.0651 31.3155 38.5051C31.1424 37.7875 31.1402 37.1753 31.172 36.3809Z" fill="#FBAB4A"/>
<path d="M68.8803 38.4656C67.8937 36.2708 69.196 34.8032 71.4802 33.7148C72.3022 35.1876 73.3474 36.5732 71.0731 37.6106C71.2691 37.7396 71.4651 37.8686 71.661 37.9976C71.3781 38.5256 71.0951 39.0536 70.534 39.6137C69.7974 39.2524 69.3388 38.859 68.8803 38.4656Z" fill="#A27EF5"/>
<path d="M68.7402 38.4627C69.3403 38.8578 69.7988 39.2512 70.4048 39.7125C71.3507 40.073 72.149 40.3655 73.1431 40.6685C72.8365 41.627 72.3341 42.5751 71.6095 43.6613C71.2943 43.7991 71.2014 43.7988 71.0248 43.6604C70.0336 42.0941 69.1262 40.6658 68.2305 39.1073C68.2666 38.8044 68.291 38.6317 68.3155 38.459C68.4099 38.4597 68.5043 38.4604 68.7402 38.4627Z" fill="#8667EC"/>
<path d="M71.8371 37.9263C71.4662 37.8666 71.2702 37.7377 71.0742 37.6087C73.3485 36.5713 72.3033 35.1856 71.6687 33.6801C72.71 31.9636 72.9232 33.8331 73.7438 33.8995C75.0685 35.8321 74.2601 37.0697 71.8371 37.9263Z" fill="#8D6BF0"/>
<path d="M71.1062 43.7988C71.1991 43.7991 71.292 43.7994 71.5243 43.8004C72.3022 44.2024 72.9407 44.6036 73.7307 45.0754C73.155 46.6517 72.4278 48.1574 71.695 49.8246C70.8729 50.0222 70.0565 50.0583 68.9933 50.0838C68.7144 49.0196 68.6822 47.9658 68.668 46.5525C68.6859 45.7231 68.6858 45.2533 68.8763 44.7458C69.7466 44.405 70.4264 44.1019 71.1062 43.7988Z" fill="#8E76EC"/>
<path d="M68.1759 38.3555C68.2907 38.6322 68.2662 38.8049 68.019 39.1194C66.6971 39.3932 65.5979 39.5251 64.4151 39.5225C63.2262 38.0183 62.1209 36.6487 61.0156 35.279C61.1229 35.1604 61.2301 35.0417 61.4686 34.8881C64.0248 34.1224 65.6425 34.7491 66.6236 36.6752C66.9205 37.258 67.5561 37.7291 68.1759 38.3555Z" fill="#F6889B"/>
<path d="M45.5417 44.815C43.3606 43.015 42.6659 40.8155 42.8589 38.1822C43.5126 37.0295 44.1748 36.0697 44.9149 34.9732C45.1922 34.7968 45.3916 34.7571 45.9554 34.7539C46.4722 34.8154 46.6246 34.8404 46.7007 35.0294C45.6601 37.8765 46.1952 38.8176 48.8946 39.5023C49.2886 38.6161 49.6799 37.7361 50.0991 37.0211C50.1704 37.2914 50.2138 37.3968 50.2327 37.676C50.6407 40.479 50.6407 40.479 52.8578 40.4266C52.8578 39.7788 52.8578 39.1254 53.0043 38.4721C53.3461 38.4761 53.5414 38.48 53.7874 38.6608C54.3591 39.753 54.6025 41.2183 55.4461 41.4937C60.6372 43.1883 62.2916 46.3003 61.7268 50.5C60.8822 52.379 59.5464 53.8491 57.1251 54.6627C56.5605 54.8524 56.3841 55.7898 56.0366 56.5612C55.1063 56.0702 54.1684 55.4012 53.43 54.8745C52.4931 55.6355 51.9544 56.0729 51.2981 56.4092C50.7068 54.5472 48.1935 53.8781 44.9759 54.7371C44.7158 53.4023 44.4597 52.0881 44.1265 50.4512C44.0492 49.4994 44.0492 48.8704 44.0492 48.1497C46.1957 50.0149 48.2475 51.7978 50.3363 53.6129C50.8145 53.1716 50.9139 53.1226 50.9132 53.0744C50.8643 49.5895 50.8673 46.0794 45.5417 44.815ZM51.7971 50.9728C52.3155 54.0262 52.3155 54.0262 54.2915 54.0796C54.7817 49.8035 53.9998 47.7092 51.5804 47.4938C51.6372 48.5384 51.6927 49.5584 51.7971 50.9728ZM56.4058 48.6583C55.9568 48.8247 55.1076 49.0142 55.12 49.1541C55.2613 50.7407 55.5343 52.3196 55.778 53.9404C59.1197 52.9281 59.3823 51.193 56.4058 48.6583Z" fill="#FFFBF6"/>
<path d="M52.5098 20.9566C53.1886 22.2855 53.6873 23.5434 51.5865 24.5732C46.8436 24.623 45.9045 23.2532 47.8247 19.707C49.3287 20.1002 50.8327 20.4933 52.5098 20.9566Z" fill="#EFF0F4"/>
<path d="M47.6441 19.707C45.9039 23.255 46.8429 24.6249 51.4408 24.6555C50.0603 25.2106 48.446 25.817 46.9164 24.5197C45.5024 23.3205 45.2164 21.9675 46.0861 20.2897C46.5815 19.9835 47.0229 19.8444 47.6441 19.707Z" fill="#B04873"/>
<path d="M46.7791 34.867C46.6267 34.842 46.4743 34.817 46.1055 34.7206C46.9702 33.6585 48.0514 32.6676 49.1078 31.6995C49.4566 32.0827 50.2083 32.9089 50.9601 33.735C51.2186 33.6347 51.4771 33.5344 51.7356 33.4341C51.8669 32.7712 51.9981 32.1082 52.1294 31.4453C53.1107 33.9052 55.0973 34.8069 58.2026 34.2337C58.413 34.9058 58.5909 35.4741 58.8412 36.3714C59.0669 37.6733 59.2201 38.6463 59.1927 39.6299C57.3569 38.2045 55.7017 36.7685 54.0465 35.3324C53.8821 35.4366 53.7177 35.5408 53.5533 35.645C53.6151 36.5918 53.6769 37.5387 53.7387 38.4855C53.5435 38.4816 53.3482 38.4777 52.9478 38.3411C52.7007 38.1208 52.6587 38.0332 52.6234 37.7727C51.9477 36.4724 53.2525 34.4555 50.087 34.2021C50.087 35.1742 50.087 36.0332 49.8591 36.8904C49.2219 36.1213 48.8125 35.3538 48.3784 34.5401C47.8204 34.6542 47.2998 34.7606 46.7791 34.867Z" fill="#FDDEB3"/>
<path d="M59.3734 39.6191C59.2202 38.6461 59.067 37.6732 58.8945 36.5325C59.464 36.0148 60.0527 35.6648 60.8286 35.2969C62.121 36.6486 63.2263 38.0183 64.4002 39.6796C64.4628 40.1809 64.4568 40.3905 64.245 40.633C62.1973 41.1435 60.4863 41.2439 59.3734 39.6191Z" fill="#8F76E0"/>
<path d="M27.4509 40.2852C27.5595 40.3589 27.6038 40.4614 27.6255 40.5669C27.6284 40.5809 27.5157 40.6102 27.4566 40.6324C27.4309 40.5265 27.4052 40.4207 27.4509 40.2852Z" fill="#8F77EB"/>
<path d="M59.1902 39.6295C60.4837 41.2436 62.1947 41.1433 64.4385 40.7466C64.8959 41.4902 65.0237 42.1552 64.9933 42.8154C64.8898 45.0681 64.7306 47.3192 64.5926 49.5709C63.7722 49.8793 62.9517 50.1877 61.9288 50.4986C62.2912 46.3015 60.6368 43.1895 55.4457 41.4949C54.602 41.2195 54.3586 39.7542 53.787 38.662C53.6744 37.5382 53.6126 36.5914 53.5508 35.6446C53.7152 35.5404 53.8796 35.4362 54.044 35.332C55.6992 36.7681 57.3544 38.2041 59.1902 39.6295Z" fill="#FBA545"/>
<path d="M64.7041 49.5958C64.7322 47.3198 64.8914 45.0687 64.995 42.816C65.0254 42.1558 64.8976 41.4909 64.6461 40.7143C64.4559 40.3909 64.4618 40.1813 64.4828 39.8146C65.5971 39.5255 66.6963 39.3936 68.0066 39.25C69.1251 40.6666 70.0325 42.0949 71.0236 43.6613C70.4276 44.1024 69.7478 44.4055 68.7142 44.7981C68.1942 45.4217 68.028 45.9557 67.8618 46.4897C67.7053 47.3463 67.7249 48.2619 67.3237 49.0365C67.097 49.474 66.1781 49.6795 65.3599 49.928C65.0476 49.7752 64.936 49.693 64.7041 49.5958Z" fill="#9C7BEE"/>
<path d="M67.9766 46.4954C68.028 45.9557 68.1943 45.4217 68.5237 44.8359C68.687 45.2539 68.687 45.7237 68.6175 46.3617C68.395 46.5279 68.2428 46.5183 67.9766 46.4954Z" fill="#454278"/>
<path d="M45.4583 44.9575C50.8693 46.0809 50.8664 49.591 50.9153 53.076C50.916 53.1241 50.8166 53.1732 50.3384 53.6144C48.2496 51.7994 46.1978 50.0165 44.0513 48.1513C44.0513 48.872 44.0513 49.501 44.036 50.298C40.4576 50.0317 36.8945 49.5974 33.1026 49.162C32.7561 47.5403 32.6385 45.9197 32.582 44.1094C36.0448 44.4072 39.4389 44.9336 42.8533 45.3535C43.6582 45.4525 44.5312 45.1931 45.4583 44.9575Z" fill="#FAA74E"/>
<path d="M32.332 43.0938C32.4787 43.1792 32.5921 43.3847 32.7051 43.7064C32.5694 43.6198 32.4341 43.4167 32.332 43.0938Z" fill="#FAA74E"/>
<path d="M51.7742 50.7778C51.6943 49.5607 51.6388 48.5407 51.582 47.4961C54.0014 47.7115 54.7833 49.8058 54.2931 54.0819C52.3171 54.0285 52.3171 54.0285 51.7742 50.7778Z" fill="#FBAB58"/>
<path d="M56.5839 48.7578C59.3835 51.1937 59.1208 52.9288 55.7792 53.9411C55.5355 52.3203 55.2625 50.7414 55.1212 49.1548C55.1088 49.0149 55.958 48.8254 56.5839 48.7578Z" fill="#FBAB58"/>
<path d="M46.703 35.03C47.3 34.7595 47.8206 34.6531 48.3786 34.5391C48.8127 35.3528 49.2221 36.1202 49.8494 36.8821C50.0673 36.8766 50.0735 36.8567 50.0735 36.8567C49.6822 37.7367 49.2909 38.6167 48.8969 39.5029C46.1975 38.8182 45.6624 37.8771 46.703 35.03Z" fill="#FCB150"/>
<path d="M50.1028 37.0218C50.0749 36.8568 50.0687 36.8767 50.0787 36.884C50.0886 36.0323 50.0886 35.1733 50.0886 34.2012C53.2541 34.4546 51.9494 36.4715 52.4544 37.7542C51.605 37.774 50.933 37.6384 50.2609 37.5028C50.2175 37.3975 50.1741 37.2921 50.1028 37.0218Z" fill="#FCA637"/>
<path d="M50.2344 37.6765C50.9309 37.6382 51.603 37.7737 52.4457 37.9269C52.6583 38.0321 52.7002 38.1196 52.8009 38.3399C52.8595 39.1259 52.8595 39.7792 52.8595 40.4271C50.6424 40.4795 50.6424 40.4795 50.2344 37.6765Z" fill="#FCB457"/>
</svg>
