<svg width="100" height="80" viewBox="0 0 100 80" fill="none" xmlns="http://www.w3.org/2000/svg">
<path d="M77.5937 10.1927C81.7095 12.8481 83.0282 16.5433 83.3984 20.7894C83.7722 25.0758 83.3767 29.2763 82.7302 33.6819C81.6873 34.0572 80.5419 34.2876 79.381 34.4038C77.1898 34.6232 75.9836 35.4331 76.6073 37.6998C76.5843 39.5279 76.6329 41.1465 76.5612 42.7612C76.4973 44.1978 77.2462 44.6919 78.8695 44.709C80.3775 44.7249 81.8819 44.9998 83.3879 45.1606C83.031 48.387 82.9762 51.6654 82.2389 54.8265C81.3653 58.5715 78.216 60.9322 73.9815 62.4736C73.798 61.6106 73.9577 60.8523 74.1446 59.9651C72.1153 59.9651 70.2691 59.9651 68.3311 59.9651C68.7882 61.5836 69.206 63.0627 69.3951 64.5992C66.4847 64.8411 63.803 65.0254 61.2011 65.2042C61.7076 63.6727 62.4043 62.5169 62.4222 61.3534C62.5188 55.0651 62.4473 48.7749 62.6787 42.4746C64.0449 42.4597 65.1662 42.4539 66.2875 42.4517C70.1191 42.4443 70.406 42.1834 70.251 38.6551C70.2819 35.4804 70.283 32.5131 70.3021 29.5458C70.3121 27.9836 69.4559 27.2248 67.6094 27.2504C65.8812 27.2743 64.1518 27.2353 62.4377 27.0189C62.4558 25.1832 62.4761 23.5525 62.4589 21.9222C62.4282 18.9995 61.1918 17.9376 57.7498 17.9274C52.222 17.911 46.6941 17.925 41.1625 17.7297C41.1577 17.3114 41.1593 17.0895 41.1551 16.8677C41.0946 13.6662 39.4218 11.7386 36.2512 11.2156C33.2045 10.7131 30.4103 12.0835 29.2609 14.6441C28.0631 17.3125 29.1571 19.608 32.4139 21.3031C32.7734 21.4902 33.077 21.7564 33.4215 22.1896C33.4237 33.1104 33.4108 43.8275 33.1825 54.5519C30.8259 54.2136 28.6848 53.868 26.5481 53.3284C26.5488 51.9447 26.5451 50.755 26.7565 49.5734C28.5503 49.2453 30.129 48.9092 32.3075 48.4453C31.0089 47.2024 30.3542 46.5759 29.6343 45.792C30.2759 44.0577 28.7544 43.9757 27.6362 43.4425C27.4166 43.0389 27.2592 42.7741 27.1626 42.3284C27.0219 39.5956 27.0108 37.0189 26.5663 34.4986C26.1087 31.9048 21.9802 30.4785 19.9831 32.3981C17.6002 34.6883 15.963 37.558 14.0735 40.2136C13.4654 41.0683 13.2325 42.1327 12.5635 42.9397C11.0469 44.7689 11.3906 46.2082 13.8129 47.3888C13.8009 47.3822 13.8182 47.3831 13.8616 47.5762C13.9675 48.4848 14.0246 49.2006 14.0933 49.9156C14.2479 51.5235 15.03 52.5163 17.1556 52.3831C17.2499 53.8804 17.3337 55.1839 17.3796 56.568C17.3419 56.6486 17.2131 56.7825 17.0349 56.8422C14.1722 57.7299 15.4706 59.7464 15.0897 61.2617C10.5245 58.17 9.07647 53.7094 8.41746 49.1297C7.81414 44.937 8.1408 40.6717 10.4424 36.7745C12.0167 34.1085 13.8107 31.5381 15.6932 28.6551C18.9584 28.3853 22.037 28.3853 25.8255 28.3853C25.9035 27.3892 25.9967 25.695 26.1803 24.008C26.3321 22.6131 25.6063 22.2362 24.0673 22.2328C21.9342 22.2281 19.8018 21.995 17.6691 21.8597C18.0551 20.316 18.4059 18.7652 18.8343 17.2303C19.7122 14.0843 22.0476 11.9671 25.6321 11.2377C28.5652 10.6409 31.6391 10.5054 34.6629 10.2979C37.7203 10.0881 40.793 10.0412 44.0782 10.0329C44.2957 10.3635 44.3245 10.5881 44.2873 10.8043C43.9799 12.5897 44.921 14.0624 46.7325 14.4747C47.9692 14.7562 49.8048 14.2777 50.8913 13.5839C52.4111 12.6133 52.383 11.0473 51.4033 9.5888C51.1969 9.28148 51.1398 8.90027 51.014 8.55311C58.6058 5.99998 66.2408 5.77045 73.9306 8.22839C74.3937 8.3764 74.8869 8.45482 75.2013 8.74637C72.0966 8.98369 69.1567 9.04027 66.2168 9.09685C66.2083 9.3331 66.1998 9.56934 66.1913 9.80559C66.6966 9.96254 67.2019 10.1195 67.7066 10.451C68.0543 11.6389 68.4026 12.6521 68.6777 13.4524C70.1994 13.2563 71.4221 12.7969 72.4342 13.0251C75.4429 13.7034 75.9043 12.2239 76.2337 10.2644C76.8164 10.2266 77.2051 10.2096 77.5937 10.1927ZM71.3157 50.9352C71.3836 51.5351 71.4515 52.135 71.5661 53.148C73.2816 52.3215 74.6542 51.6603 76.0268 50.999C75.9222 50.7125 75.8177 50.426 75.7132 50.1395C74.3726 50.272 73.032 50.4046 71.7929 50.1864C71.5292 47.7138 71.0258 47.3484 67.4463 47.5845C68.9113 48.769 70.0364 49.6786 71.3157 50.9352ZM67.7323 20.9624C67.7137 21.2484 67.6952 21.5344 67.2896 21.8802C66.9613 22.0033 66.633 22.1264 66.3048 22.2495C66.3318 22.3639 66.3587 22.4784 66.3857 22.5928C69.9167 22.5928 73.4476 22.5928 76.9785 22.5928C77.0019 22.4603 77.0253 22.3277 77.0487 22.1952C76.5496 22.0708 76.0505 21.9464 75.5585 21.6226C75.5585 21.6226 75.5804 21.424 75.9196 21.3821C76.0961 21.0952 76.5009 20.6285 76.4151 20.5483C74.9653 19.1939 73.4544 17.8876 71.9078 16.2651C71.7265 15.908 71.5451 15.5508 71.0875 15.4003C70.4152 16.3566 69.7092 17.297 69.0813 18.2743C68.5822 19.0514 68.1786 19.8737 67.7323 20.9624ZM69.968 56.586C70.3532 57.2568 70.7383 57.9276 71.1894 58.7131C71.5989 58.3924 72.0178 58.0645 72.8258 57.7036C74.4696 56.7912 76.1135 55.8789 77.7573 54.9666C77.6321 54.7469 77.507 54.5272 77.3818 54.3075C75.4842 54.093 73.5011 53.2621 71.5029 55.0687C70.1786 53.2114 68.5007 52.1302 65.0236 53.3162C66.9113 54.5119 68.3482 55.422 69.968 56.586ZM73.0058 14.0622C72.7772 14.4057 72.5485 14.7491 72.3199 15.0925C72.4683 15.1592 72.6167 15.2258 72.7652 15.2925C72.9196 14.9363 73.074 14.5801 73.0058 14.0622Z" fill="#E3EFFE"/>
<path d="M26.5454 53.5234C28.6865 53.869 30.8276 54.2146 33.3148 54.6232C34.0448 54.7736 34.4288 54.8611 34.9536 55.053C37.194 55.706 38.0737 56.9072 38.1032 58.8004C38.1295 60.4947 38.4966 62.1851 38.6873 64.0227C38.8068 64.5346 38.9525 64.901 39.0981 65.2674C39.2595 66.6138 39.421 67.9602 39.4873 69.6109C38.9072 70.5674 38.4223 71.2197 37.7753 71.9183C37.2708 71.9636 36.9285 71.9625 36.3956 71.9103C35.7643 71.2645 35.0638 70.7104 34.9277 70.0681C34.3123 67.1635 33.9309 64.2219 33.2885 61.3224C33.1363 60.6355 32.301 60.0601 31.7525 59.3726C31.6776 59.293 31.6301 59.2743 31.5827 59.2556C31.642 59.3204 31.7012 59.3852 31.7333 59.6579C31.8764 62.8965 32.0001 65.93 32.2361 68.9571C32.3563 70.4982 32.3216 71.9151 30.4173 72.855C29.9765 72.8758 29.6808 72.8641 29.1826 72.8134C28.521 71.9676 27.787 71.1932 27.6512 70.3482C27.126 67.0808 26.7915 63.7909 26.3927 60.5642C24.3226 60.1626 22.3598 60.0363 20.6825 59.3759C19.3459 58.8497 18.3577 57.6721 17.2148 56.7836C17.2148 56.7836 17.3436 56.6496 17.5861 56.5594C21.0247 56.1201 24.0907 55.4879 26.5454 53.5234Z" fill="#5A6EF6"/>
<path d="M17.0353 56.8438C18.3564 57.6725 19.3446 58.8502 20.6812 59.3764C22.3585 60.0367 24.3213 60.1631 26.3914 60.5646C26.7901 63.7914 27.1246 67.0813 27.6498 70.3486C27.7857 71.1937 28.5196 71.968 29.0875 72.9514C28.6519 73.789 28.1075 74.4501 27.3231 75.1069C21.8306 75.7108 17.4922 74.6836 15.1016 70.1715C15.1097 67.3315 15.1178 64.4915 15.108 61.4574C15.471 59.7479 14.1726 57.7314 17.0353 56.8438Z" fill="#A0CBFA"/>
<path d="M14.9052 70.1697C17.4916 74.6834 21.83 75.7105 27.3768 75.2647C30.2302 76.5673 32.7838 77.0202 35.6047 75.9293C36.7396 75.4905 38.1634 75.4256 39.44 75.4772C41.056 75.5425 42.4758 75.5495 43.2268 74.2127C41.3725 73.3925 39.654 72.6324 37.9355 71.8722C38.4204 71.2199 38.9053 70.5677 39.4997 69.7988C41.8192 70.2857 44.1185 70.7199 46.2159 71.5361C48.7148 72.5086 48.8293 74.5552 46.3258 75.4119C43.1794 76.4886 39.8179 77.2272 36.471 77.7219C29.4264 78.7631 22.3932 78.1931 15.476 76.8225C13.6657 76.4638 11.9407 75.5908 10.3341 74.7359C9.07603 74.0663 8.95601 73.0131 10.3539 72.2538C11.7565 71.4919 13.2536 70.8581 14.9052 70.1697Z" fill="#E2EEFD"/>
<path d="M39.3385 65.2572C38.9513 64.9002 38.8056 64.5338 38.9134 64.0178C45.3024 63.8678 51.4381 63.8727 57.5738 63.8649C60.729 63.8608 61.0198 63.6229 61.0279 60.957C61.0468 54.8022 61.044 48.6473 61.2241 42.4831C61.7436 42.4777 62.0889 42.4816 62.4343 42.4856C62.4478 48.7752 62.5194 55.0654 62.4227 61.3537C62.4049 62.5172 61.7081 63.673 61.2017 65.2045C63.8035 65.0256 66.4852 64.8413 69.4631 64.6789C69.7713 64.9008 69.7833 65.1009 69.7954 65.3009C59.7236 65.2832 49.6518 65.2655 39.3385 65.2572Z" fill="#351D64"/>
<path d="M17.4461 21.873C19.8003 21.9958 21.9327 22.2289 24.0658 22.2336C25.6048 22.237 26.3306 22.6139 26.1788 24.0088C25.9952 25.6958 25.902 27.39 25.824 28.3861C22.0355 28.3861 18.9569 28.3861 15.6939 28.4951C15.0953 28.3282 14.339 28.0666 14.3223 27.774C14.214 25.8789 14.2668 23.977 14.2668 21.8856C15.532 21.8856 16.3783 21.8856 17.4461 21.873ZM17.244 23.7385C16.9186 24.0021 16.5931 24.2657 16.2677 24.5293C16.7666 24.8469 17.3097 25.4759 17.757 25.4292C19.9299 25.2024 22.0771 24.7945 24.2334 24.4507C24.2183 24.2092 24.2032 23.9677 24.1881 23.7261C22.0255 23.7261 19.8629 23.7261 17.244 23.7385Z" fill="#4E6CF5"/>
<path d="M83.618 45.1529C81.8831 45.0013 80.3787 44.7265 78.8706 44.7106C77.2473 44.6935 76.4985 44.1994 76.5624 42.7628C76.6341 41.1481 76.5855 39.5294 76.8459 37.7268C80.7062 37.5546 84.3098 37.568 87.9135 37.5814C87.945 39.2843 87.8442 40.9985 88.0424 42.687C88.2746 44.6655 87.4138 45.4467 85.1411 45.1496C84.7192 45.0945 84.2788 45.143 83.618 45.1529ZM85.3035 41.5737C85.6552 41.3301 86.0069 41.0865 86.3587 40.8429C85.8726 40.6346 85.3866 40.4263 84.8889 39.8834C84.2044 39.4172 83.5199 38.9511 82.4003 38.457C81.677 38.4645 80.9537 38.472 79.8411 38.4957C77.4671 39.286 77.7943 40.9879 78.4693 42.3853C79.1086 43.7087 80.6118 44.1968 82.7036 43.3857C83.9654 43.2722 85.9315 43.8063 85.3035 41.5737Z" fill="#A1CBFA"/>
<path d="M50.8193 8.51926C51.1405 8.90226 51.1975 9.28347 51.404 9.59079C52.3836 11.0492 52.4117 12.6153 50.8919 13.5858C49.8054 14.2796 47.9698 14.7582 46.7331 14.4767C44.9217 14.0644 43.9806 12.5916 44.2879 10.8063C44.3252 10.5901 44.2963 10.3655 44.2806 9.94963C45.9089 7.58217 48.0463 7.22162 50.8193 8.51926Z" fill="#9DCBF4"/>
<path d="M87.9515 37.3795C84.3089 37.5674 80.7052 37.554 76.8641 37.5151C75.9838 35.434 77.19 34.6241 79.3812 34.4047C80.5421 34.2885 81.6875 34.058 82.9253 33.7324C84.5787 33.9778 86.1467 34.37 87.9904 34.8311C87.9904 35.4524 87.9904 36.3153 87.9515 37.3795Z" fill="#5575FA"/>
<path d="M70.0241 65.2899C69.7837 65.1004 69.7717 64.9004 69.6922 64.6209C69.2069 63.0624 68.7892 61.5834 68.332 59.9648C70.27 59.9648 72.1163 59.9648 74.1455 59.9648C73.9587 60.8521 73.7989 61.6104 73.7934 62.5095C73.7909 63.2493 73.6342 63.8482 73.3695 64.6577C73.1073 64.9388 73.0164 65.0479 72.9886 65.1957C72.0765 65.2236 71.1644 65.2514 70.0241 65.2899Z" fill="#2B2B36"/>
<path d="M67.7073 10.2774C67.202 10.1204 66.6967 9.96346 66.1914 9.80651C66.1999 9.57026 66.2084 9.33402 66.2168 9.09777C69.1567 9.04119 72.0966 8.98461 75.2785 8.90234C76.211 9.20146 76.9015 9.52626 77.5929 10.0223C77.2052 10.2105 76.8165 10.2275 75.9928 10.2355C72.9409 10.2435 70.3241 10.2604 67.7073 10.2774Z" fill="#7990FC"/>
<path d="M73.226 65.2152C73.0158 65.0492 73.1067 64.9401 73.3635 64.8146C77.7636 64.7914 82.0607 64.8227 86.3578 64.8598C86.4316 64.8604 86.5046 64.9321 87.0781 65.2333C82.2117 65.2333 77.8378 65.2333 73.226 65.2152Z" fill="#67568A"/>
<path d="M62.4245 27.2252C64.1534 27.2366 65.8828 27.2756 67.611 27.2516C69.4575 27.226 70.3137 27.9848 70.3037 29.5471C70.2846 32.5143 70.2835 35.4817 70.0518 38.6667C65.9553 39.9214 62.1555 40.2807 58.2218 37.9743C59.269 37.634 59.9614 37.409 61.3742 36.95C60.1184 36.7793 59.6314 36.6195 59.1734 36.6666C56.772 36.9136 55.0959 36.2536 53.4301 34.5706C49.8828 30.9866 45.2972 28.8727 39.5781 28.8662C39.6529 27.1443 40.9677 27.2578 42.1897 27.2547C48.487 27.239 54.7843 27.2256 61.2499 27.207C61.7536 27.2102 62.0891 27.2177 62.4245 27.2252ZM62.5774 29.8673C64.4269 29.8673 66.2764 29.8673 68.3553 29.8673C68.1111 29.2958 67.9913 28.7208 67.844 28.7156C66.0688 28.6525 64.2887 28.6563 62.513 28.7138C62.4015 28.7174 62.3159 29.3115 62.5774 29.8673Z" fill="#8FC3F3"/>
<path d="M39.5912 29.0473C45.295 28.8713 49.8806 30.9852 53.4279 34.5692C55.0937 36.2522 56.7698 36.9122 59.1712 36.6652C59.6293 36.6181 60.1162 36.7779 61.3721 36.9486C59.9592 37.4077 59.2669 37.6326 58.2196 37.9729C62.1533 40.2793 65.9532 39.92 70.0273 38.8727C70.4055 42.1833 70.1185 42.4442 66.2869 42.4516C65.1656 42.4538 64.0443 42.4596 62.6781 42.4745C62.0878 42.4813 61.7425 42.4773 60.9722 42.467C54.5025 42.4551 48.4575 42.4281 42.4128 42.4559C40.3658 42.4653 39.4429 41.7937 39.507 39.938C39.6324 36.3102 39.5737 32.6778 39.5912 29.0473ZM46.5231 34.5098C45.9525 32.2873 43.9397 33.1872 42.4242 33.2355C42.2258 33.2419 42.0785 34.4286 41.9075 35.0686C43.1413 35.1713 44.3736 35.307 45.6102 35.3485C45.8525 35.3566 46.1113 34.9995 46.5231 34.5098Z" fill="#A1CAF8"/>
<path d="M13.826 47.3954C11.3917 46.2081 11.048 44.7688 12.5646 42.9396C13.2337 42.1327 13.4665 41.0683 14.0746 40.2136C15.9642 37.5579 17.6013 34.6883 19.9842 32.398C21.9813 30.4785 26.1099 31.9047 26.5674 34.4986C27.0119 37.0189 27.023 39.5955 26.9637 42.3198C25.4694 42.0741 24.2358 41.656 22.9784 41.0894C23.1774 40.6645 23.3464 40.3359 23.6315 40.1202C26.085 38.264 25.5854 35.6333 22.7928 34.5901C21.7658 35.4504 20.816 36.246 19.8661 37.0417C19.7539 36.8886 19.6417 36.7354 19.5294 36.5823C19.4351 38.0864 19.3408 39.5905 19.0512 41.1235C14.8725 41.853 13.8478 43.1248 13.826 47.3954Z" fill="#DF0C27"/>
<path d="M13.8128 47.3892C13.8466 43.1252 14.8713 41.8534 19.0372 41.2885C20.5005 43.2944 21.4283 43.2488 23.001 41.2383C24.2346 41.6564 25.4682 42.0744 26.9018 42.5011C27.2591 42.7745 27.4166 43.0393 27.4887 43.5187C26.9228 44.2132 26.4423 44.6931 25.8418 45.2772C24.4045 48.6844 20.7536 48.2801 17.6449 49.2077C17.4681 46.7469 15.2019 47.8541 13.8182 47.3834C13.8182 47.3834 13.8008 47.3825 13.8128 47.3892Z" fill="#FCFAF8"/>
<path d="M62.4391 27.0193C62.0889 27.2169 61.7534 27.2093 61.2381 27.0025C61.0544 25.9102 61.0474 25.0173 61.0472 24.1243C61.0461 19.044 61.0466 19.0429 55.0223 19.2224C54.8631 19.2271 54.7073 19.3188 54.5511 19.3726C53.8812 21.77 53.7284 21.8706 50.6908 21.8804C49.3899 21.8846 48.0889 21.8698 46.7882 21.8837C44.3442 21.9098 41.6194 22.3899 41.2023 19.2443C41.196 19.1975 40.8853 19.1803 40.7266 19.0196C40.8802 18.5687 41.0239 18.2476 41.1676 17.9266C46.6955 17.9254 52.2234 17.9114 57.7512 17.9278C61.1932 17.938 62.4296 18.9999 62.4603 21.9226C62.4775 23.5529 62.4572 25.1836 62.4391 27.0193Z" fill="#2E145E"/>
<path d="M13.8594 47.5768C15.1997 47.8544 17.4659 46.7472 17.6427 49.208C20.7514 48.2804 24.4023 48.6847 25.8721 45.4355C26.6068 47.012 27.7586 47.1564 29.6973 45.95C30.352 46.5766 31.0066 47.2031 32.3052 48.446C30.1267 48.9098 28.548 49.246 26.6376 49.4611C23.2515 50.29 20.1971 51.24 17.1427 52.1899C15.0278 52.5169 14.2457 51.5241 14.0911 49.9162C14.0223 49.2012 13.9652 48.4854 13.8594 47.5768Z" fill="#F6C3A5"/>
<path d="M34.8127 54.9482C34.4288 54.8607 34.0448 54.7732 33.5303 54.6155C33.4125 43.8281 33.4254 33.111 33.5975 22.1448C34.1162 21.9038 34.4756 21.9118 34.8435 22.1274C34.8389 33.2062 34.8258 44.0772 34.8127 54.9482Z" fill="#381F65"/>
<path d="M17.1562 52.3838C20.2 51.2401 23.2544 50.2901 26.4254 49.4531C26.5457 50.7558 26.5494 51.9455 26.5488 53.3292C24.0897 55.4876 21.0236 56.1199 17.6228 56.4785C17.3343 55.1847 17.2506 53.8812 17.1562 52.3838Z" fill="#F9F9F9"/>
<path d="M34.8334 21.9196C34.4739 21.9116 34.1145 21.9037 33.5808 21.9411C33.0771 21.7569 32.7734 21.4907 32.4139 21.3036C29.1571 19.6085 28.0631 17.313 29.2609 14.6446C30.4103 12.084 33.2046 10.7136 36.2513 11.2161C39.4219 11.7391 41.0946 13.6667 41.1552 16.8682C41.1594 17.09 41.1577 17.3119 41.1625 17.7302C41.0226 18.2477 40.8788 18.5688 40.5805 19.1162C39.0874 21.0414 37.2276 21.9074 34.8334 21.9196ZM31.4963 19.2013C32.1301 19.579 32.7909 20.3029 33.3926 20.2684C35.0961 20.1707 37.1997 20.1872 38.3376 19.35C39.3523 18.6035 39.9333 16.6323 39.5731 15.4571C38.6946 12.5906 35.8843 11.507 33.2568 12.5347C30.0388 13.7934 29.3241 16.0429 31.4963 19.2013Z" fill="#B5D8F9"/>
<path d="M67.707 10.4528C70.3245 10.2612 72.9413 10.2443 75.7991 10.2572C75.9048 12.2256 75.4434 13.7052 72.4347 13.0268C71.4226 12.7986 70.1999 13.2581 68.6782 13.4542C68.4031 12.6539 68.0547 11.6406 67.707 10.4528Z" fill="#FBFDFF"/>
<path d="M71.8911 55.106C73.5029 53.263 75.4861 54.0938 77.3837 54.3084C77.5088 54.528 77.634 54.7477 77.7591 54.9674C76.1153 55.8797 74.4715 56.7921 72.5649 57.5831C71.9834 56.9365 71.6648 56.4112 71.3984 55.7807C71.5976 55.4857 71.7444 55.2958 71.8911 55.106Z" fill="#5573FA"/>
<path d="M71.6959 55.0868C71.7423 55.2948 71.5955 55.4847 71.2202 55.7762C70.5894 56.0292 70.1871 56.1806 69.7848 56.332C68.3479 55.4219 66.9111 54.5117 65.0234 53.316C68.5005 52.1301 70.1784 53.2112 71.6959 55.0868Z" fill="#5A76F9"/>
<path d="M71.363 15.1953C71.5443 15.5525 71.7257 15.9097 71.9131 16.6176C71.9193 18.1041 71.9193 19.2399 71.9193 19.9067C73.4991 20.5623 74.5394 20.994 75.5796 21.4257C75.5796 21.4257 75.5577 21.6243 75.3104 21.7474C72.6007 21.8543 70.1382 21.8382 67.6758 21.8222C67.6943 21.5361 67.7129 21.2501 67.9587 20.7832C69.1721 20.5461 70.1584 20.4897 71.363 20.421C71.363 18.5334 71.363 16.8643 71.363 15.1953Z" fill="#AFD4FB"/>
<path d="M75.7479 21.404C74.5381 20.9933 73.4978 20.5616 71.918 19.9059C71.918 19.2391 71.918 18.1033 71.9365 16.7695C73.4523 17.8885 74.9632 19.1948 76.413 20.5493C76.4988 20.6294 76.094 21.0962 75.7479 21.404Z" fill="#FDFEFF"/>
<path d="M71.227 15.2969C71.3651 16.8626 71.3651 18.5316 71.3651 20.4192C70.1605 20.488 69.1743 20.5443 67.9609 20.6382C68.1799 19.8736 68.5835 19.0513 69.0827 18.2742C69.7105 17.2969 70.4165 16.3565 71.227 15.2969Z" fill="#FEFEFF"/>
<path d="M29.636 45.7931C27.7625 47.1569 26.6108 47.0124 25.9961 45.3317C26.4441 44.6938 26.9246 44.2139 27.5526 43.6582C28.756 43.9767 30.2776 44.0588 29.636 45.7931Z" fill="#36175C"/>
<path d="M67.483 21.8515C70.139 21.8377 72.6014 21.8538 75.3076 21.8465C76.0504 21.9476 76.5495 22.072 77.0486 22.1964C77.0252 22.3289 77.0018 22.4614 76.9784 22.594C73.4475 22.594 69.9166 22.594 66.3857 22.594C66.3587 22.4795 66.3317 22.3651 66.3047 22.2506C66.6329 22.1276 66.9612 22.0045 67.483 21.8515Z" fill="#506EFC"/>
<path d="M71.6924 50.5383C73.0329 50.4057 74.3735 50.2732 75.7141 50.1406C75.8186 50.4271 75.9232 50.7136 76.0277 51.0001C74.6551 51.6614 73.2825 52.3227 71.5671 53.1491C71.4524 52.1361 71.3845 51.5362 71.3711 50.7382C71.5145 50.5394 71.6034 50.5389 71.6924 50.5383Z" fill="#607BF6"/>
<path d="M71.7412 50.3629C71.6015 50.5389 71.5126 50.5395 71.292 50.5647C70.0354 49.6798 68.9103 48.7702 67.4453 47.5856C71.0248 47.3495 71.5282 47.715 71.7412 50.3629Z" fill="#5874F7"/>
<path d="M69.8789 56.4604C70.1897 56.1821 70.592 56.0307 71.1705 55.8828C71.6653 56.4117 71.984 56.937 72.3708 57.6001C72.0202 58.0658 71.6013 58.3937 71.1918 58.7144C70.7407 57.9289 70.3556 57.2581 69.8789 56.4604Z" fill="#516BEC"/>
<path d="M73.1175 14.1445C73.0744 14.5816 72.92 14.9378 72.7656 15.2939C72.6172 15.2273 72.4687 15.1606 72.3203 15.094C72.549 14.7506 72.7776 14.4071 73.1175 14.1445Z" fill="#FBFDFF"/>
<path d="M34.8426 22.129C37.2283 21.9091 39.0881 21.0431 40.5713 19.2476C40.8846 19.1821 41.1954 19.1992 41.2016 19.2461C41.6188 22.3916 44.3436 21.9115 46.7876 21.8854C48.0882 21.8716 49.3893 21.8864 50.6901 21.8822C53.7278 21.8724 53.8805 21.7717 54.5505 19.3743C54.7067 19.3205 54.8624 19.2288 55.0217 19.2241C61.0459 19.0446 61.0454 19.0457 61.0466 24.126C61.0468 25.019 61.0537 25.912 61.0692 27.0086C54.7835 27.2265 48.4862 27.2399 42.1889 27.2556C40.9669 27.2587 39.652 27.1452 39.5773 28.8671C39.5751 32.6801 39.6338 36.3125 39.5084 39.9403C39.4442 41.796 40.3671 42.4676 42.4142 42.4582C48.4588 42.4304 54.5038 42.4573 60.7995 42.4786C61.0443 48.6492 61.047 54.8041 61.0282 60.9589C61.02 63.6248 60.7293 63.8627 57.574 63.8668C51.4383 63.8746 45.3027 63.8697 38.9397 63.8741C38.4957 62.1862 38.1286 60.4958 38.1022 58.8015C38.0728 56.9083 37.1931 55.7071 34.9527 55.0541C34.8248 44.0788 34.8379 33.2077 34.8426 22.129ZM50.1021 48.235C47.3834 47.6251 44.7719 48.4438 43.1051 50.4286C41.7996 51.9831 41.7749 54.7308 43.0523 56.3045C44.6664 58.293 47.3776 59.1978 50.022 58.6305C53.5861 57.8659 54.8874 55.8257 54.778 51.1779C55.472 50.1545 56.2006 49.2031 54.781 48.0974C53.1898 46.858 51.8671 47.4175 50.1021 48.235Z" fill="#FDFEFE"/>
<path d="M37.7736 71.918C39.6543 72.6318 41.3728 73.3919 43.2271 74.2121C42.4761 75.5489 41.0563 75.5418 39.4403 75.4766C38.1637 75.425 36.7399 75.4899 35.605 75.9287C32.7842 77.0196 30.2305 76.5667 27.6172 75.2685C28.1072 74.4493 28.6516 73.7882 29.2897 72.9895C29.6792 72.8637 29.9748 72.8754 30.5771 72.9503C34.4828 74.7807 34.4828 74.7807 36.5846 71.961C36.9269 71.9621 37.2692 71.9632 37.7736 71.918Z" fill="#381D62"/>
<path d="M36.3943 71.9106C34.4832 74.7813 34.4832 74.7813 30.7227 72.9185C32.3203 71.9154 32.3551 70.4984 32.2349 68.9573C31.9988 65.9303 31.8751 62.8968 31.7374 59.6543C31.77 59.4426 31.7787 59.4336 31.7787 59.4336C32.2997 60.0603 33.135 60.6358 33.2872 61.3227C33.9296 64.2221 34.311 67.1638 34.9264 70.0684C35.0625 70.7106 35.763 71.2648 36.3943 71.9106Z" fill="#9BC4F8"/>
<path d="M31.7651 59.4465C31.7005 59.3855 31.6413 59.3207 31.582 59.2559C31.6295 59.2746 31.6769 59.2933 31.7518 59.3729C31.7793 59.4336 31.7706 59.4426 31.7651 59.4465Z" fill="#9BC4F8"/>
<path d="M17.474 23.7327C19.8647 23.7266 22.0273 23.7266 24.19 23.7266C24.205 23.9681 24.2201 24.2096 24.2352 24.4512C22.0789 24.7949 19.9317 25.2028 17.7588 25.4297C17.3115 25.4764 16.7685 24.8473 16.2695 24.5297C16.595 24.2661 16.9204 24.0025 17.474 23.7327Z" fill="#A7B7FD"/>
<path d="M82.292 43.3618C80.611 44.1958 79.1077 43.7077 78.4684 42.3843C77.7934 40.9869 77.4663 39.285 80.0329 38.6484C80.348 39.6438 80.4706 40.4855 80.6124 41.4591C81.304 41.4952 82.051 41.5343 82.7317 41.7179C82.5409 42.3622 82.4165 42.862 82.292 43.3618Z" fill="#C9E2FD"/>
<path d="M82.4977 43.3736C82.4168 42.8624 82.5412 42.3626 82.7366 41.5695C82.8167 40.3456 82.8258 39.415 82.8349 38.4844C83.5194 38.9505 84.2039 39.4166 84.8924 40.2235C84.9058 40.9116 84.9151 41.259 84.9244 41.6064C85.931 43.8057 83.9649 43.2716 82.4977 43.3736Z" fill="#F0F7FE"/>
<path d="M82.616 38.4702C82.8245 39.4149 82.8154 40.3455 82.8017 41.4248C82.0501 41.5345 81.303 41.4954 80.6114 41.4593C80.4696 40.4857 80.3471 39.644 80.2266 38.6406C80.9519 38.4713 81.6752 38.4638 82.616 38.4702Z" fill="#DAECFE"/>
<path d="M85.1138 41.5895C84.9152 41.2588 84.906 40.9114 84.8984 40.3906C85.3862 40.4255 85.8723 40.6338 86.3583 40.8421C86.0066 41.0857 85.6548 41.3293 85.1138 41.5895Z" fill="#E0EEFF"/>
<path d="M62.3958 29.7475C62.3139 29.31 62.3995 28.7159 62.511 28.7123C64.2867 28.6548 66.0667 28.651 67.842 28.7141C67.9893 28.7193 68.1091 29.2943 68.3533 29.8658C66.2743 29.8658 64.4249 29.8658 62.3958 29.7475Z" fill="#250F5C"/>
<path d="M46.4455 34.6612C46.114 35.0004 45.8551 35.3574 45.6129 35.3493C44.3763 35.3079 43.144 35.1721 41.9102 35.0694C42.0811 34.4294 42.2284 33.2427 42.4269 33.2364C43.9424 33.188 45.9552 32.2881 46.4455 34.6612Z" fill="#F4F9FE"/>
<path d="M22.9752 41.0891C21.4264 43.2481 20.4986 43.2937 19.2305 41.2589C19.3376 39.5902 19.4319 38.0861 19.5263 36.582C19.6385 36.7351 19.7507 36.8883 19.863 37.0414C20.8128 36.2458 21.7626 35.4501 22.7896 34.5898C25.5823 35.633 26.0818 38.2637 23.6284 40.1199C23.3433 40.3356 23.1743 40.6643 22.9752 41.0891Z" fill="#F6BC9E"/>
<path d="M31.3565 19.0752C29.3224 16.0444 30.0371 13.795 33.2552 12.5363C35.8827 11.5086 38.693 12.5922 39.5715 15.4587C39.9316 16.6338 39.3507 18.605 38.336 19.3516C37.198 20.1888 35.0944 20.1723 33.3909 20.27C32.7892 20.3045 32.1285 19.5805 31.3565 19.0752ZM34.2264 17.0065C34.3008 17.4993 34.3752 17.9921 34.4497 18.4848C35.0168 18.2629 36.0624 18.052 36.0697 17.8172C36.1052 16.6838 35.9063 15.5366 35.6586 14.4158C35.6279 14.2772 34.6504 14.0715 34.3825 14.2312C33.2108 14.9301 32.7939 15.7928 34.2264 17.0065Z" fill="#8EC3F1"/>
<path d="M72.6331 56.104C72.6187 56.0821 72.6475 56.1258 72.6331 56.104V56.104Z" fill="#516BEC"/>
<path d="M73.7191 55.6294C73.7044 55.6073 73.7338 55.6515 73.7191 55.6294V55.6294Z" fill="#516BEC"/>
<path d="M54.5861 51.4713C54.8869 55.8235 53.5856 57.8637 50.0215 58.6283C47.3771 59.1956 44.666 58.2908 43.0518 56.3022C41.7744 54.7286 41.7991 51.9809 43.1046 50.4263C44.7714 48.4415 47.3829 47.6228 50.2994 48.4182C50.4721 48.8091 50.447 49.0144 50.204 49.203C49.4693 49.1763 48.951 49.1842 48.4359 49.1534C45.7262 48.9915 44.2492 50.3266 43.5161 52.3246C42.8699 54.0857 43.7864 55.4834 45.4227 56.5517C47.3696 57.8226 49.4161 57.9575 51.3203 56.5837C53.0581 55.33 53.6484 53.7194 52.7261 51.734C53.4268 51.5712 54.0065 51.5213 54.5861 51.4713Z" fill="#B8DAFA"/>
<path d="M50.4219 49.2201C50.447 49.0147 50.4721 48.8093 50.4937 48.4493C51.8666 47.4155 53.1893 46.856 54.7805 48.0954C56.2001 49.2011 55.4716 50.1525 54.6818 51.3237C54.0065 51.5215 53.4268 51.5715 52.5641 51.6717C51.6613 50.888 51.0416 50.0541 50.4219 49.2201Z" fill="#E6F2FE"/>
<path d="M34.1877 16.8634C32.7974 15.7916 33.2144 14.9288 34.386 14.23C34.6539 14.0702 35.6315 14.276 35.6621 14.4145C35.9099 15.5353 36.1087 16.6825 36.0733 17.8159C36.0659 18.0508 35.0203 18.2617 34.4532 18.4836C34.3788 17.9908 34.3043 17.498 34.1877 16.8634Z" fill="#DCEDF9"/>
<path d="M50.2011 49.2035C51.0387 50.0543 51.6584 50.8882 52.4402 51.7848C53.6455 53.7199 53.0553 55.3305 51.3174 56.5842C49.4132 57.9579 47.3668 57.8231 45.4199 56.5521C43.7835 55.4839 42.867 54.0862 43.5133 52.325C44.2464 50.3271 45.7233 48.992 48.433 49.1539C48.9481 49.1847 49.4664 49.1767 50.2011 49.2035ZM46.606 52.6735C46.8301 53.2895 47.0542 53.9055 47.4281 54.9334C47.515 54.9288 48.8562 54.9553 48.8725 54.8416C49.0311 53.737 48.9678 52.609 48.9678 50.8458C47.9005 51.5106 47.2056 51.9434 46.606 52.6735Z" fill="#8FC3F1"/>
<path d="M46.5625 52.5267C47.2097 51.9452 47.9046 51.5124 48.972 50.8477C48.972 52.6109 49.0352 53.7389 48.8767 54.8435C48.8603 54.9571 47.5191 54.9307 47.4323 54.9353C47.0584 53.9074 46.8343 53.2914 46.5625 52.5267Z" fill="#E7F3FB"/>
</svg>
