<svg width="25" height="24" viewBox="0 0 25 24" fill="none" xmlns="http://www.w3.org/2000/svg">
<path d="M12.5 22.75C6.57 22.75 1.75 17.93 1.75 12C1.75 6.07 6.57 1.25 12.5 1.25C18.43 1.25 23.25 6.07 23.25 12C23.25 17.93 18.43 22.75 12.5 22.75ZM12.5 2.75C7.4 2.75 3.25 6.9 3.25 12C3.25 17.1 7.4 21.25 12.5 21.25C17.6 21.25 21.75 17.1 21.75 12C21.75 6.9 17.6 2.75 12.5 2.75Z" fill="#353535"/>
<path d="M16.0302 14.0099C15.8402 14.0099 15.6502 13.9399 15.5002 13.7899L12.5002 10.7899L9.50016 13.7899C9.21016 14.0799 8.73016 14.0799 8.44016 13.7899C8.15016 13.4999 8.15016 13.0199 8.44016 12.7299L11.9702 9.19992C12.2602 8.90992 12.7402 8.90992 13.0302 9.19992L16.5602 12.7299C16.8502 13.0199 16.8502 13.4999 16.5602 13.7899C16.4102 13.9399 16.2202 14.0099 16.0302 14.0099Z" fill="#353535"/>
</svg>
