<svg width="40" height="40" viewBox="0 0 40 40" fill="none" xmlns="http://www.w3.org/2000/svg">
<path d="M2.08398 20.0007C2.08398 10.1055 10.1055 2.08398 20.0007 2.08398C29.8958 2.08398 37.9173 10.1055 37.9173 20.0007C37.9173 29.8958 29.8958 37.9173 20.0007 37.9173C10.1055 37.9173 2.08398 29.8958 2.08398 20.0007ZM20.0007 4.58398C11.4863 4.58398 4.58398 11.4863 4.58398 20.0007C4.58398 28.515 11.4863 35.4173 20.0007 35.4173C28.515 35.4173 35.4173 28.515 35.4173 20.0007C35.4173 11.4863 28.515 4.58398 20.0007 4.58398Z" fill="#222222"/>
<path d="M23.3845 11.6168C23.8727 12.1049 23.8727 12.8964 23.3845 13.3845L16.7684 20.0007L23.3845 26.6168C23.8727 27.1049 23.8727 27.8964 23.3845 28.3845C22.8964 28.8727 22.1049 28.8727 21.6168 28.3845L14.1168 20.8845C13.6286 20.3964 13.6286 19.6049 14.1168 19.1168L21.6168 11.6168C22.1049 11.1286 22.8964 11.1286 23.3845 11.6168Z" fill="#222222"/>
</svg>
