<svg width="24" height="24" viewBox="0 0 24 24" fill="none" xmlns="http://www.w3.org/2000/svg">
<path fill-rule="evenodd" clip-rule="evenodd" d="M1.59578 2.36825C1.81123 2.2304 2.08207 2.21185 2.31429 2.31903L8.51129 5.17919L15.2046 2.31064C15.3998 2.22696 15.6214 2.23001 15.8143 2.31903L22.3143 5.31903C22.5799 5.44162 22.75 5.70746 22.75 6V21C22.75 21.2558 22.6197 21.4939 22.4042 21.6318C22.1888 21.7696 21.9179 21.7882 21.6857 21.681L15.4887 18.8208L8.79544 21.6894C8.60018 21.773 8.37859 21.77 8.18571 21.681L1.68571 18.681C1.42009 18.5584 1.25 18.2925 1.25 18V3C1.25 2.74423 1.38034 2.5061 1.59578 2.36825ZM15.4887 3.82082L8.79544 6.68936C8.60018 6.77304 8.37859 6.76999 8.18571 6.68097L2.75 4.17218V17.5201L8.51129 20.1792L15.2046 17.3106C15.3998 17.227 15.6214 17.23 15.8143 17.319L21.25 19.8278V6.47988L15.4887 3.82082Z" fill="#222222"/>
<path fill-rule="evenodd" clip-rule="evenodd" d="M15.5 2.25C15.9142 2.25 16.25 2.58579 16.25 3V18C16.25 18.4142 15.9142 18.75 15.5 18.75C15.0858 18.75 14.75 18.4142 14.75 18V3C14.75 2.58579 15.0858 2.25 15.5 2.25Z" fill="#222222"/>
<path fill-rule="evenodd" clip-rule="evenodd" d="M8.5 5.25C8.91421 5.25 9.25 5.58579 9.25 6V21C9.25 21.4142 8.91421 21.75 8.5 21.75C8.08579 21.75 7.75 21.4142 7.75 21V6C7.75 5.58579 8.08579 5.25 8.5 5.25Z" fill="#222222"/>
<path fill-rule="evenodd" clip-rule="evenodd" d="M15.2046 2.31064C15.3998 2.22696 15.6214 2.23001 15.8143 2.31903L19.0645 3.81903C19.4406 3.99261 19.6047 4.4382 19.4312 4.81429C19.2576 5.19038 18.812 5.35455 18.4359 5.18097L15.4887 3.82082L8.79544 6.68936C8.60018 6.77304 8.37859 6.76999 8.18571 6.68097L4.93589 5.18097C4.5598 5.00739 4.39563 4.5618 4.56921 4.18571C4.74279 3.80962 5.18839 3.64545 5.56447 3.81903L8.51129 5.17919L15.2046 2.31064Z" fill="#222222"/>
<path fill-rule="evenodd" clip-rule="evenodd" d="M15.2046 17.3106C15.3998 17.227 15.6214 17.23 15.8143 17.319L19.0645 18.819C19.4406 18.9926 19.6047 19.4382 19.4312 19.8143C19.2576 20.1904 18.812 20.3545 18.4359 20.181L15.4887 18.8208L8.79544 21.6894C8.60018 21.773 8.37859 21.77 8.18571 21.681L4.93589 20.181C4.5598 20.0074 4.39563 19.5618 4.56921 19.1857C4.74279 18.8096 5.18839 18.6455 5.56447 18.819L8.51129 20.1792L15.2046 17.3106Z" fill="#222222"/>
</svg>
