<svg width="40" height="40" viewBox="0 0 40 40" fill="none" xmlns="http://www.w3.org/2000/svg">
<path d="M1.36803 4.46981C1.57375 4.03057 2.01499 3.75 2.50002 3.75H5.41668C5.99027 3.75 6.49025 4.14037 6.62936 4.69683L7.64265 8.75H38.2677L33.476 27.9167H9.85738L5.52335 10.5806L1.53974 5.80023C1.22924 5.42763 1.1623 4.90904 1.36803 4.46981ZM8.26765 11.25L11.8093 25.4167H31.524L35.0657 11.25H8.26765ZM10.8333 31.25C10.143 31.25 9.58335 31.8096 9.58335 32.5C9.58335 33.1904 10.143 33.75 10.8333 33.75C11.5237 33.75 12.0833 33.1904 12.0833 32.5C12.0833 31.8096 11.5237 31.25 10.8333 31.25ZM7.08335 32.5C7.08335 30.4289 8.76228 28.75 10.8333 28.75C12.9044 28.75 14.5834 30.4289 14.5834 32.5C14.5834 34.5711 12.9044 36.25 10.8333 36.25C8.76228 36.25 7.08335 34.5711 7.08335 32.5ZM32.5 31.25C31.8097 31.25 31.25 31.8096 31.25 32.5C31.25 33.1904 31.8097 33.75 32.5 33.75C33.1904 33.75 33.75 33.1904 33.75 32.5C33.75 31.8096 33.1904 31.25 32.5 31.25ZM28.75 32.5C28.75 30.4289 30.4289 28.75 32.5 28.75C34.5711 28.75 36.25 30.4289 36.25 32.5C36.25 34.5711 34.5711 36.25 32.5 36.25C30.4289 36.25 28.75 34.5711 28.75 32.5Z" fill="white"/>
</svg>
