<svg width="16" height="16" viewBox="0 0 16 16" fill="none" xmlns="http://www.w3.org/2000/svg">
<path fill-rule="evenodd" clip-rule="evenodd" d="M0.833984 8.00065C0.833984 4.04261 4.04261 0.833984 8.00065 0.833984C11.9587 0.833984 15.1673 4.04261 15.1673 8.00065C15.1673 11.9587 11.9587 15.1673 8.00065 15.1673C4.04261 15.1673 0.833984 11.9587 0.833984 8.00065ZM8.00065 1.83398C4.59489 1.83398 1.83398 4.59489 1.83398 8.00065C1.83398 11.4064 4.59489 14.1673 8.00065 14.1673C11.4064 14.1673 14.1673 11.4064 14.1673 8.00065C14.1673 4.59489 11.4064 1.83398 8.00065 1.83398Z" fill="#505050"/>
<path fill-rule="evenodd" clip-rule="evenodd" d="M10.2399 5.76148C10.4351 5.95674 10.4351 6.27332 10.2399 6.46858L6.46863 10.2398C6.27336 10.4351 5.95678 10.4351 5.76152 10.2398C5.56626 10.0446 5.56626 9.72797 5.76152 9.53271L9.53275 5.76148C9.72801 5.56622 10.0446 5.56622 10.2399 5.76148Z" fill="#505050"/>
<path fill-rule="evenodd" clip-rule="evenodd" d="M5.76152 5.76148C5.95678 5.56622 6.27336 5.56622 6.46863 5.76148L10.2399 9.53271C10.4351 9.72797 10.4351 10.0446 10.2399 10.2398C10.0446 10.4351 9.72801 10.4351 9.53275 10.2398L5.76152 6.46858C5.56626 6.27332 5.56626 5.95674 5.76152 5.76148Z" fill="#505050"/>
</svg>
