<svg width="16" height="18" viewBox="0 0 16 18" fill="none" xmlns="http://www.w3.org/2000/svg">
<path fill-rule="evenodd" clip-rule="evenodd" d="M7.99935 3.79102C4.43251 3.79102 1.54102 6.68251 1.54102 10.2493C1.54102 13.8162 4.43251 16.7077 7.99935 16.7077C11.5662 16.7077 14.4577 13.8162 14.4577 10.2493C14.4577 6.68251 11.5662 3.79102 7.99935 3.79102ZM0.291016 10.2493C0.291016 5.99215 3.74215 2.54102 7.99935 2.54102C12.2565 2.54102 15.7077 5.99215 15.7077 10.2493C15.7077 14.5065 12.2565 17.9577 7.99935 17.9577C3.74215 17.9577 0.291016 14.5065 0.291016 10.2493Z" fill="white"/>
<path fill-rule="evenodd" clip-rule="evenodd" d="M4.87435 0.666016C4.87435 0.320838 5.15417 0.0410156 5.49935 0.0410156H10.4993C10.8445 0.0410156 11.1243 0.320838 11.1243 0.666016C11.1243 1.01119 10.8445 1.29102 10.4993 1.29102H5.49935C5.15417 1.29102 4.87435 1.01119 4.87435 0.666016Z" fill="white"/>
<path fill-rule="evenodd" clip-rule="evenodd" d="M7.99935 6.29102C8.34453 6.29102 8.62435 6.57084 8.62435 6.91602V10.2493C8.62435 10.5945 8.34453 10.8743 7.99935 10.8743C7.65417 10.8743 7.37435 10.5945 7.37435 10.2493V6.91602C7.37435 6.57084 7.65417 6.29102 7.99935 6.29102Z" fill="white"/>
<path fill-rule="evenodd" clip-rule="evenodd" d="M7.37435 10.2493C7.37435 9.90417 7.65417 9.62435 7.99935 9.62435H11.3327C11.6779 9.62435 11.9577 9.90417 11.9577 10.2493C11.9577 10.5945 11.6779 10.8743 11.3327 10.8743H7.99935C7.65417 10.8743 7.37435 10.5945 7.37435 10.2493Z" fill="white"/>
<path fill-rule="evenodd" clip-rule="evenodd" d="M7.99935 0.0410156C8.34453 0.0410156 8.62435 0.320838 8.62435 0.666016V2.33268C8.62435 2.67786 8.34453 2.95768 7.99935 2.95768C7.65417 2.95768 7.37435 2.67786 7.37435 2.33268V0.666016C7.37435 0.320838 7.65417 0.0410156 7.99935 0.0410156Z" fill="white"/>
</svg>
