<svg width="208" height="40" viewBox="0 0 208 40" fill="none" xmlns="http://www.w3.org/2000/svg">
<path fill-rule="evenodd" clip-rule="evenodd" d="M14.5827 3.33398C14.5827 2.64363 15.1423 2.08398 15.8327 2.08398H20.8327C21.523 2.08398 22.0827 2.64363 22.0827 3.33398C22.0827 4.13646 23.002 5.41732 24.9993 5.41732C26.9967 5.41732 27.916 4.13646 27.916 3.33398C27.916 2.64363 28.4757 2.08398 29.166 2.08398H34.166C34.8564 2.08398 35.416 2.64363 35.416 3.33398V28.334C35.416 29.0243 34.8564 29.584 34.166 29.584H29.166C28.4757 29.584 27.916 29.0243 27.916 28.334C27.916 27.4536 27.0219 26.2507 24.9993 26.2507C24.309 26.2507 23.7493 25.691 23.7493 25.0007C23.7493 24.3103 24.309 23.7507 24.9993 23.7507C27.4848 23.7507 29.5952 25.0968 30.2248 27.084H32.916V4.58398H30.2129C29.5721 6.50751 27.4879 7.91732 24.9993 7.91732C22.5108 7.91732 20.4266 6.50751 19.7858 4.58398H17.0827V15.0007C17.0827 15.691 16.523 16.2507 15.8327 16.2507C15.1423 16.2507 14.5827 15.691 14.5827 15.0007V3.33398Z" fill="white"/>
<path fill-rule="evenodd" clip-rule="evenodd" d="M5.41602 11.6673C5.41602 10.977 5.97566 10.4173 6.66602 10.4173H11.666C12.3564 10.4173 12.916 10.977 12.916 11.6673C12.916 12.4698 13.8353 13.7507 15.8327 13.7507C17.83 13.7507 18.7493 12.4698 18.7493 11.6673C18.7493 10.977 19.309 10.4173 19.9993 10.4173H24.9993C25.6897 10.4173 26.2493 10.977 26.2493 11.6673V36.6673C26.2493 37.3577 25.6897 37.9173 24.9993 37.9173H19.9993C19.309 37.9173 18.7493 37.3577 18.7493 36.6673C18.7493 35.7869 17.8552 34.584 15.8327 34.584C13.8102 34.584 12.916 35.7869 12.916 36.6673C12.916 37.3577 12.3564 37.9173 11.666 37.9173H6.66602C5.97566 37.9173 5.41602 37.3577 5.41602 36.6673V11.6673ZM7.91602 12.9173V35.4173H10.6073C11.2368 33.4302 13.3472 32.084 15.8327 32.084C18.3182 32.084 20.4285 33.4302 21.0581 35.4173H23.7493V12.9173H21.0462C20.4055 14.8408 18.3212 16.2507 15.8327 16.2507C13.3441 16.2507 11.2599 14.8408 10.6192 12.9173H7.91602Z" fill="white"/>
<path d="M11.666 21.6673C12.5865 21.6673 13.3327 20.9211 13.3327 20.0007C13.3327 19.0802 12.5865 18.334 11.666 18.334C10.7455 18.334 9.99935 19.0802 9.99935 20.0007C9.99935 20.9211 10.7455 21.6673 11.666 21.6673Z" fill="white"/>
<path d="M15.8327 21.6673C16.7532 21.6673 17.4993 20.9211 17.4993 20.0007C17.4993 19.0802 16.7532 18.334 15.8327 18.334C14.9122 18.334 14.166 19.0802 14.166 20.0007C14.166 20.9211 14.9122 21.6673 15.8327 21.6673Z" fill="white"/>
<path d="M19.9993 21.6673C20.9198 21.6673 21.666 20.9211 21.666 20.0007C21.666 19.0802 20.9198 18.334 19.9993 18.334C19.0789 18.334 18.3327 19.0802 18.3327 20.0007C18.3327 20.9211 19.0789 21.6673 19.9993 21.6673Z" fill="white"/>
<g clip-path="url(#clip0_11002_9420)">
<path d="M162.56 8.00782H120.624C120.518 8.0075 120.413 8.01987 120.309 8.04471C119.955 8.12196 119.636 8.33821 119.407 8.65624C119.177 8.97426 119.051 9.37417 119.051 9.78711V30.1916C119.051 30.6635 119.214 31.1161 119.505 31.4498C119.796 31.7835 120.191 31.9709 120.602 31.9709C120.68 31.969 120.758 31.9608 120.835 31.9463H136.923C137.127 31.9463 137.329 31.9002 137.518 31.8106C137.707 31.7209 137.878 31.5896 138.022 31.424C138.167 31.2584 138.281 31.0618 138.359 30.8454C138.438 30.629 138.478 30.3971 138.478 30.1629C138.478 29.6896 138.314 29.2355 138.023 28.9004C137.731 28.5653 137.335 28.3765 136.923 28.3754H122.161V21.7871H136.937C137.337 21.7651 137.714 21.5674 137.991 21.235C138.267 20.9026 138.421 20.4609 138.421 20.0017C138.421 19.5424 138.267 19.1008 137.991 18.7683C137.714 18.4359 137.337 18.2382 136.937 18.2162H122.161V11.5746H147.519V30.2121C147.52 30.6801 147.683 31.1284 147.972 31.4589C148.261 31.7894 148.652 31.975 149.06 31.975H149.092C149.5 31.975 149.892 31.7894 150.181 31.4589C150.469 31.1284 150.632 30.6801 150.633 30.2121V11.5746H162.56C162.972 11.5746 163.368 11.3867 163.659 11.0523C163.951 10.7178 164.115 10.2642 164.115 9.79122C164.115 9.31823 163.951 8.86462 163.659 8.53017C163.368 8.19571 162.972 8.00782 162.56 8.00782Z" fill="white"/>
<path d="M184.036 28.3809H167.723C166.864 28.3809 166.168 29.1793 166.168 30.1643C166.168 31.1492 166.864 31.9477 167.723 31.9477H184.036C184.895 31.9477 185.591 31.1492 185.591 30.1643C185.591 29.1793 184.895 28.3809 184.036 28.3809Z" fill="white"/>
<path d="M184.036 18.2168H167.722C167.322 18.2388 166.945 18.4365 166.669 18.7689C166.392 19.1013 166.238 19.543 166.238 20.0022C166.238 20.4615 166.392 20.9031 166.669 21.2356C166.945 21.568 167.322 21.7657 167.722 21.7877H184.036C184.436 21.7657 184.813 21.568 185.089 21.2356C185.366 20.9031 185.52 20.4615 185.52 20.0022C185.52 19.543 185.366 19.1013 185.089 18.7689C184.813 18.4365 184.436 18.2388 184.036 18.2168Z" fill="white"/>
<path d="M184.036 8H167.723C167.311 8 166.915 8.1879 166.623 8.52235C166.332 8.8568 166.168 9.31041 166.168 9.7834C166.168 10.2564 166.332 10.71 166.623 11.0444C166.915 11.3789 167.311 11.5668 167.723 11.5668H184.036C184.241 11.5668 184.443 11.5207 184.631 11.431C184.82 11.3414 184.992 11.2101 185.136 11.0444C185.28 10.8788 185.395 10.6822 185.473 10.4659C185.551 10.2495 185.591 10.0176 185.591 9.7834C185.591 9.5492 185.551 9.31729 185.473 9.10092C185.395 8.88455 185.28 8.68795 185.136 8.52235C184.992 8.35674 184.82 8.22538 184.631 8.13576C184.443 8.04613 184.241 8 184.036 8Z" fill="white"/>
<path d="M65.8684 8.00781H49.5552C49.1427 8.00781 48.7472 8.19571 48.4555 8.53016C48.1639 8.86461 48 9.31822 48 9.79121C48 10.2642 48.1639 10.7178 48.4555 11.0523C48.7472 11.3867 49.1427 11.5746 49.5552 11.5746H56.1548V30.1916C56.1548 30.6635 56.3183 31.1161 56.6093 31.4498C56.9002 31.7835 57.2949 31.9709 57.7064 31.9709C58.1179 31.9709 58.5126 31.7835 58.8035 31.4498C59.0945 31.1161 59.258 30.6635 59.258 30.1916V11.5746H65.8576C66.2701 11.5746 66.6656 11.3867 66.9573 11.0523C67.249 10.7178 67.4128 10.2642 67.4128 9.79121C67.4128 9.31822 67.249 8.86461 66.9573 8.53016C66.6656 8.19571 66.2701 8.00781 65.8576 8.00781H65.8684Z" fill="white"/>
<path d="M70.8205 8.00781H70.8133C69.9564 8.00781 69.2617 8.80443 69.2617 9.78711V30.1793C69.2617 31.162 69.9564 31.9586 70.8133 31.9586H70.8205C71.6774 31.9586 72.3721 31.162 72.3721 30.1793V9.78711C72.3721 8.80443 71.6774 8.00781 70.8205 8.00781Z" fill="white"/>
<path d="M98.3481 8.00781C97.9357 8.00781 97.5401 8.19571 97.2485 8.53016C96.9568 8.86461 96.793 9.31822 96.793 9.79121V30.1916C96.8121 30.6503 96.9845 31.083 97.2744 31.3999C97.5643 31.7168 97.9494 31.8935 98.3499 31.8935C98.7504 31.8935 99.1355 31.7168 99.4254 31.3999C99.7153 31.083 99.8877 30.6503 99.9069 30.1916V9.79121C99.9059 9.31785 99.7413 8.86424 99.4491 8.52991C99.1569 8.19558 98.7609 8.00781 98.3481 8.00781Z" fill="white"/>
<path d="M115.373 8.00781C114.946 8.00781 114.537 8.20219 114.235 8.54817C113.933 8.89416 113.764 9.36341 113.764 9.8527V12.3126C113.764 13.8997 113.214 15.422 112.236 16.5451C111.258 17.6681 109.932 18.3001 108.548 18.3023H102.642C102.271 18.3022 101.911 18.4491 101.624 18.718C101.337 18.987 101.139 19.3615 101.065 19.7782C101.042 19.9022 101.03 20.0286 101.029 20.1554C101.029 20.6447 101.199 21.114 101.501 21.4599C101.802 21.8059 102.211 22.0003 102.638 22.0003H108.544C109.927 22.0014 111.253 22.6319 112.231 23.7535C113.209 24.875 113.759 26.3958 113.76 27.9818V30.1096C113.76 30.5989 113.93 31.0682 114.231 31.4142C114.533 31.7601 114.942 31.9545 115.369 31.9545C115.796 31.9545 116.205 31.7601 116.507 31.4142C116.808 31.0682 116.978 30.5989 116.978 30.1096V27.9818C116.977 26.4529 116.66 24.9459 116.053 23.5847C115.446 22.2234 114.566 21.0468 113.485 20.1513C114.567 19.2567 115.448 18.0804 116.056 16.719C116.664 15.3576 116.981 13.8502 116.981 12.3208V9.86091C116.982 9.61809 116.941 9.37755 116.86 9.15301C116.779 8.92848 116.661 8.72434 116.512 8.55227C116.362 8.38019 116.185 8.24354 115.989 8.15012C115.794 8.05671 115.584 8.00835 115.373 8.00781Z" fill="white"/>
<path d="M205.225 20.5949C206.071 19.9828 206.769 19.1359 207.254 18.1327C207.739 17.1295 207.995 16.0022 208 14.8552C207.979 13.0161 207.323 11.2615 206.176 9.97644C205.028 8.69136 203.483 7.9807 201.879 8.0004H189.195C188.768 8.0004 188.359 8.19477 188.057 8.54076C187.755 8.88674 187.586 9.356 187.586 9.84529C187.586 10.3346 187.755 10.8038 188.057 11.1498C188.359 11.4958 188.768 11.6902 189.195 11.6902H201.879C202.256 11.6683 202.632 11.7344 202.986 11.8846C203.34 12.0348 203.663 12.2659 203.936 12.5638C204.21 12.8618 204.427 13.2204 204.576 13.6178C204.725 14.0153 204.802 14.4432 204.802 14.8757C204.802 15.3082 204.725 15.7361 204.576 16.1336C204.427 16.531 204.21 16.8896 203.936 17.1876C203.663 17.4855 203.34 17.7166 202.986 17.8668C202.632 18.017 202.256 18.0831 201.879 18.0612H189.195C188.768 18.0612 188.359 18.2556 188.057 18.6016C187.755 18.9476 187.586 19.4168 187.586 19.9061C187.586 20.3954 187.755 20.8647 188.057 21.2106C188.359 21.5566 188.768 21.751 189.195 21.751H193.331C193.433 21.7723 193.535 21.7832 193.639 21.7838H199.545C200.923 21.7859 202.244 22.4123 203.221 23.5265C204.198 24.6407 204.751 26.1525 204.761 27.7325V30.1145C204.761 30.6038 204.93 31.0731 205.232 31.419C205.534 31.765 205.943 31.9594 206.37 31.9594C206.796 31.9594 207.205 31.765 207.507 31.419C207.809 31.0731 207.978 30.6038 207.978 30.1145V27.7325C207.979 26.3884 207.734 25.059 207.26 23.8297C206.786 22.6005 206.093 21.4986 205.225 20.5949Z" fill="white"/>
<path d="M92.7857 11.6691C93.2095 11.6691 93.616 11.476 93.9157 11.1323C94.2154 10.7887 94.3838 10.3225 94.3838 9.8365C94.3838 9.35047 94.2154 8.88434 93.9157 8.54066C93.616 8.19698 93.2095 8.00391 92.7857 8.00391H78.1492C77.2959 8.00391 76.4775 8.39265 75.8741 9.08462C75.2706 9.77659 74.9316 10.7151 74.9316 11.6937V28.3182C74.9316 29.2968 75.2706 30.2353 75.8741 30.9273C76.4775 31.6193 77.2959 32.008 78.1492 32.008H92.7857C93.2095 32.008 93.616 31.8149 93.9157 31.4713C94.2154 31.1276 94.3838 30.6614 94.3838 30.1754C94.3838 29.6894 94.2154 29.2233 93.9157 28.8796C93.616 28.5359 93.2095 28.3428 92.7857 28.3428L78.1278 28.3223L78.1457 11.6773L92.7857 11.6691Z" fill="white"/>
</g>
<defs>
<clipPath id="clip0_11002_9420">
<rect width="160" height="24" fill="white" transform="translate(48 8)"/>
</clipPath>
</defs>
</svg>
